<?xml version="1.0" encoding="UTF-8"?>
<svg id="Capa_2" data-name="Capa 2" xmlns="http://www.w3.org/2000/svg" viewBox="0 0 240.06 156.18">
  <defs>
    <style>
      .cls-1 {
        stroke-width: 5px;
      }

      .cls-1, .cls-2 {
        fill: none;
        stroke: #000;
        stroke-linecap: round;
        stroke-linejoin: round;
      }

      .cls-2 {
        stroke-width: 4.08px;
      }

      .cls-3 {
        fill: #1f1f1f;
      }
    </style>
  </defs>
  <g id="Layer_1" data-name="Layer 1">
    <g>
      <g>
        <rect class="cls-3" x="203.11" y="15.17" width="11.34" height="5.91" rx="1.2" ry="1.2"/>
        <rect class="cls-3" x="21.92" y="61.09" width="192.79" height="6.39" rx="3.19" ry="3.19"/>
        <rect class="cls-3" x="22.07" y="71.6" width="192.79" height="6.39" rx="3.19" ry="3.19"/>
        <path class="cls-3" d="M10.06.96C12.13-.02,14.46.1,16.69.02c67.33.03,134.67.02,202,0,4.18.11,8.64-.57,12.49,1.46,5.65,2.69,8.89,9.05,8.88,15.16-.04,19.36.04,38.73-.03,58.09-.23,8.03-7.12,15.53-15.28,15.58-69.7.01-139.41-.03-209.11.02C6.99,90.67-.58,82.29.04,73.78.05,54.4.08,35.02.04,15.64-.27,9.23,4.36,3.41,10.06.96ZM11.88,6.11c-3.95,1.93-6.87,6.11-6.59,10.61.05,11.13-.07,22.27.07,33.4,22.44.23,44.89.03,67.33.1,54.08-.08,108.17.15,162.25-.12-.04-10.15,0-20.3,0-30.45-.04-4.68-1.13-10.05-5.37-12.75-3.1-2.46-7.22-1.6-10.88-1.75-66.34.01-132.68.02-199.02-.01-2.6.11-5.42-.39-7.79.97ZM5.37,55.38c-.09,6.11-.07,12.22-.06,18.33-.3,6.05,5.27,11.72,11.33,11.38,67.02-.02,134.03-.01,201.05,0,3.44-.14,7.12.58,10.32-1.02,3.71-1.43,6.45-5.34,6.32-9.32.02-6.47.18-12.95-.14-19.42-76.27.04-152.55-.05-228.82.05Z"/>
      </g>
      <g>
        <path class="cls-1" d="M42.63,153.68c6.27-3.57,16.51-10.51,25.32-22.61,6.74-9.26,10.21-18.2,12.06-24.42"/>
        <path class="cls-1" d="M197.42,153.68c-6.27-3.57-16.51-10.51-25.32-22.61-6.74-9.26-10.21-18.2-12.06-24.42"/>
        <rect class="cls-2" x="118.9" y="106.65" width=".6" height="47.03"/>
      </g>
    </g>
  </g>
</svg>