<?xml version="1.0" encoding="UTF-8"?>
<svg id="Capa_2" data-name="Capa 2" xmlns="http://www.w3.org/2000/svg" viewBox="0 0 427.36 95.17">
  <defs>
    <style>
      .cls-1 {
        fill: #22821a;
      }

      .cls-2 {
        fill: #c7a140;
      }
    </style>
  </defs>
  <g id="Layer_1" data-name="Layer 1">
    <g>
      <g id="Capa_1-2" data-name="Capa 1-2">
        <g>
          <path class="cls-2" d="M363.88,70.42l-.67-.34c5.97-11.54,13.36-22.31,21.95-31.99,7.57-8.53,16.09-16.25,25.34-22.94l.44.61c-9.2,6.66-17.69,14.34-25.22,22.83-8.55,9.64-15.9,20.35-21.84,31.83Z"/>
          <path class="cls-2" d="M409.79,16.44s-.04,0-.06,0l-.17-.04-.19-.34.17-.29c.5-.51.94-1.1,1.45-1.79,1.21-1.64,2.87-3.88,6.41-6.31,4.15-2.85,8.83-4.55,8.88-4.56l1.09-.39-.65.96s-3.19,4.64-7.32,7.84c-3.95,3.06-8.82,4.93-9.59,4.93ZM425.32,4.28c-1.64.68-4.7,2.07-7.51,4-3.44,2.36-4.98,4.45-6.23,6.13-.25.34-.49.66-.72.96,1.71-.63,5.14-2.2,8.06-4.46,2.85-2.21,5.24-5.11,6.4-6.63Z"/>
          <path class="cls-2" d="M406.26,19.39c-.08,0-.17-.02-.23-.07-.11-.08-.17-.21-.16-.34l.37.03h0s-.37-.1-.37-.1c0-.03,0-.06.02-.09.21-.64.34-1.36.5-2.2.36-2,.86-4.75,2.96-8.49,2.46-4.39,5.92-7.98,5.95-8.02.11-.12.29-.15.43-.08.15.07.23.23.21.39,0,.06-.82,5.57-3.11,10.27-2.24,4.6-5.94,8.54-6.48,8.68-.03,0-.06.01-.1.01ZM405.87,18.99l.37.03-.37-.03ZM414.97,1.59c-1.17,1.34-3.3,3.94-4.97,6.91-2.04,3.63-2.5,6.19-2.88,8.25-.08.42-.15.81-.23,1.18,1.25-1.33,3.65-4.25,5.26-7.57,1.58-3.25,2.44-6.9,2.81-8.78Z"/>
          <path class="cls-2" d="M399.74,24.42c-.06,0-.12-.01-.18-.04-.11-.06-.19-.17-.21-.29,0-.03,0-.07,0-.1,0-.06,0-.12.01-.15.12-.73.15-1.6.17-2.6.06-2.37.15-5.62,1.89-10.28,2.06-5.48,5.38-10.2,5.41-10.25.09-.13.26-.19.42-.14.16.05.26.19.26.35,0,.06.05,6.57-1.75,12.37-1.76,5.68-5.29,10.84-5.88,11.09-.05.02-.11.03-.16.03ZM406.75,2.2c-1.08,1.68-3.17,5.16-4.62,9.02-1.7,4.54-1.78,7.59-1.84,10.04-.02.58-.03,1.12-.07,1.63,1.18-1.66,3.5-5.53,4.83-9.82,1.29-4.17,1.61-8.71,1.69-10.87Z"/>
          <path class="cls-2" d="M409.16,19.78c-1.84,0-3.14-.16-3.35-.31-.09-.07-.16-.18-.16-.29,0-.13.05-.25.15-.32.01,0,.09-.06.1-.07.69-.27,1.35-.64,2.11-1.07,1.82-1.02,4.31-2.42,8.61-3.21,5.05-.92,10.11-.54,10.16-.54.16.01.3.13.34.29s-.03.32-.17.41c-.05.03-4.93,2.99-10.12,4.25-2.72.66-5.56.87-7.68.87ZM407.27,18.97c1.84.13,5.7.11,9.39-.79,3.6-.88,7.07-2.6,8.78-3.53-1.8-.05-5.25-.04-8.68.59-4.18.76-6.51,2.07-8.38,3.12-.39.22-.76.43-1.11.61Z"/>
          <path class="cls-2" d="M409.66,25.59c-5.12,0-9.61-1.03-9.99-1.43-.08-.08-.13-.22-.11-.33.02-.12.09-.22.19-.28,0,0,.09-.05.12-.06.9-.21,1.77-.54,2.78-.93,2.4-.91,5.69-2.16,10.96-2.34,5.97-.2,11.53,1.03,12.14,1.17.16.04.28.17.29.33s-.07.32-.22.38c-.06.03-6.57,2.74-13.01,3.34-1.06.1-2.12.14-3.16.14ZM401.14,23.91c2.02.49,6.77,1.24,11.6.79,4.72-.44,9.48-2.03,11.62-2.83-2.08-.39-6.28-1.05-10.72-.9-5.15.17-8.24,1.34-10.72,2.29-.64.24-1.22.46-1.78.64Z"/>
          <path class="cls-2" d="M407.03,31.43c-6.15,0-12.4-1.58-12.88-2.04-.07-.07-.13-.19-.13-.29,0-.1.04-.2.12-.27.03-.03.07-.06.12-.07.09-.05.15-.06.18-.06.84-.14,1.71-.42,2.73-.75,2.4-.77,5.69-1.83,11.23-1.71,6.52.15,12.93,1.85,13,1.87.16.04.27.18.28.35,0,.16-.09.31-.25.37-.06.02-6.53,2.36-13.25,2.59-.38.01-.77.02-1.15.02ZM395.68,29.19c2.19.61,7.37,1.66,12.47,1.48,4.87-.16,9.61-1.46,11.78-2.14-2.17-.5-6.84-1.43-11.55-1.54-5.43-.12-8.51.87-10.99,1.67-.61.2-1.17.38-1.71.52Z"/>
          <path class="cls-2" d="M404.18,38.85c-7.53,0-14.73-2.7-15.69-3.08-.05.01-.1.02-.14.03-.04,0-.07.01-.07.02h0c-.2.03-.27,0-.37-.12-.09-.1-.12-.24-.07-.37.02-.07.05-.13.3-.22v-.03s.26-.05.26-.05c.63-.17,2.01-.46,5.13-1.02,2.27-.41,4.24-.42,10.07-.03,7.98.53,15.37,1.29,15.44,1.3.17.02.31.15.33.33.02.17-.08.34-.24.4-.07.03-7.19,2.6-13.91,2.83-.34.01-.68.02-1.03.02ZM389.89,35.49c2.59.9,8.92,2.81,15.29,2.6,4.66-.16,9.52-1.47,12-2.23-2.67-.26-8.01-.75-13.65-1.13-6.12-.41-7.83-.35-9.88.02-.86.16-2.51.49-3.76.74Z"/>
          <path class="cls-2" d="M398.2,44.31c-.07,0-.14,0-.22,0-7.12-.06-14.11-3-15.04-3.4-.05,0-.1.01-.14.02-.02,0-.04,0-.05,0h0c-.19.02-.27-.01-.37-.13-.08-.11-.1-.25-.06-.37.03-.08.05-.13.31-.21v-.02s.19-.03.19-.03c.57-.14,1.83-.33,4.71-.73,2.06-.29,3.85-.22,9.11.35,7.2.78,13.86,1.76,13.93,1.77.17.03.31.17.32.34.01.17-.09.33-.26.39-.06.02-6.43,2.03-12.45,2.03ZM384.37,40.68c2.39.93,7.97,2.83,13.63,2.88,4.12.03,8.42-.91,10.73-1.51-2.46-.34-7.17-.97-12.14-1.51-5.19-.56-6.95-.63-8.93-.36-.73.1-2.16.32-3.29.5Z"/>
          <path class="cls-2" d="M393.62,49.6c-7.01,0-13.57-2.45-14.44-2.79-.05.01-.1.02-.14.03-.02,0-.04,0-.05.01h0c-.2.03-.27,0-.37-.11-.09-.1-.12-.24-.07-.37.03-.08.05-.14.3-.23v-.02s.19-.04.19-.04c.58-.17,1.89-.44,4.94-1.03,2.16-.41,4.03-.44,9.52-.12,7.52.43,14.47,1.1,14.54,1.1.17.02.31.15.34.32.02.17-.08.34-.24.4-.07.03-6.9,2.54-13.26,2.81-.42.02-.83.03-1.25.03ZM380.56,46.51c2.45.84,8.31,2.57,14.28,2.31,4.36-.19,8.95-1.45,11.35-2.21-2.55-.23-7.51-.64-12.74-.94-5.42-.31-7.25-.29-9.34.11-.78.15-2.35.48-3.55.73Z"/>
          <path class="cls-2" d="M389.76,54.97c-7.01,0-13.56-2.45-14.44-2.79-.05.01-.1.02-.14.03-.02,0-.04,0-.05.01h0c-.2.03-.27,0-.37-.11-.09-.1-.12-.24-.07-.37.03-.08.05-.14.3-.23v-.02s.19-.04.19-.04c.58-.17,1.89-.44,4.94-1.03,2.16-.41,4.03-.44,9.52-.12,7.52.43,14.47,1.1,14.54,1.1.17.02.31.15.34.32.02.17-.08.34-.24.4-.07.03-6.9,2.54-13.26,2.81-.42.02-.83.03-1.25.03ZM376.7,51.89c2.45.84,8.31,2.57,14.28,2.31,4.36-.19,8.95-1.45,11.35-2.21-2.55-.23-7.51-.64-12.74-.94-5.42-.31-7.25-.29-9.34.11-.78.15-2.35.48-3.55.73Z"/>
          <path class="cls-2" d="M384.79,60.23c-6.39,0-12.33-2.19-13.19-2.52-.04,0-.08.02-.11.02-.04,0-.06.01-.07.01h0c-.19.03-.27,0-.37-.11-.09-.1-.12-.24-.08-.37.03-.09.05-.15.29-.23v-.02s.14-.03.14-.03c.52-.16,1.73-.41,4.6-.97,2-.39,3.72-.42,8.79-.15,6.93.37,13.35.95,13.41.96.17.02.31.15.34.32s-.08.34-.24.4c-.06.02-6.38,2.37-12.25,2.65-.42.02-.85.03-1.27.03ZM372.99,57.41c2.32.78,7.63,2.3,13.03,2.04,3.93-.19,8.08-1.33,10.33-2.04-2.39-.2-6.87-.55-11.59-.8-4.99-.27-6.68-.24-8.6.14-.71.14-2.08.43-3.17.66Z"/>
          <path class="cls-2" d="M382.23,42.2c-.1,0-.19-.04-.26-.11-.11-.11-.13-.17-.09-.38h0s0-.02.01-.04c.01-.06.03-.12.05-.2-.29-1.03-2.57-9.65-1.63-18.06.8-7.14,3.97-14.51,4-14.58.07-.16.24-.25.42-.22.17.03.3.19.3.36,0,.34.13,8.17-.02,16.56-.11,6.23-.29,8.33-.89,10.71-.85,3.36-1.24,4.8-1.47,5.43-.04.14-.06.21-.06.23h-.02c-.11.24-.17.26-.24.28-.03,0-.07.01-.1.01ZM384.3,10.87c-.98,2.59-2.7,7.66-3.25,12.62-.76,6.77.61,13.68,1.29,16.53.36-1.33.84-3.09,1.06-3.95.55-2.16.75-3.99.87-10.54.11-6.04.07-11.79.04-14.65Z"/>
          <path class="cls-2" d="M378.43,46.92c-.08,0-.15-.02-.22-.07-.13-.09-.16-.15-.15-.35h0s0-.04,0-.08c0-.04,0-.09.01-.15-.44-.96-4-8.9-4.47-17.04-.4-6.92,1.41-14.36,1.43-14.43.04-.17.18-.29.38-.29.18,0,.33.13.36.31.01.08,1.43,7.63,2.67,15.81.91,5.95,1.08,7.98.9,10.35-.27,3.32-.41,4.75-.51,5.37l-.02.22h-.02c-.06.25-.12.28-.19.31-.05.02-.1.04-.16.04ZM375.38,16.82c-.51,2.62-1.29,7.62-1.02,12.37.38,6.51,2.76,12.89,3.88,15.56.13-1.3.29-2.98.36-3.83.17-2.14.06-3.91-.89-10.17-.87-5.74-1.83-11.18-2.32-13.92Z"/>
          <path class="cls-2" d="M374.7,52.12c-.07,0-.13-.02-.19-.05-.13-.08-.17-.14-.18-.34h0s0-.03,0-.06c0-.05,0-.1,0-.16-.5-.85-4.54-7.87-5.64-15.67-.94-6.62.19-14.15.2-14.23.03-.2.21-.34.42-.32.16.02.28.14.32.28l.03.12c.62,2.26,2.24,8.22,3.79,14.68,1.35,5.59,1.68,7.52,1.69,9.85.02,3.26,0,4.67-.05,5.29l-.02.22c-.04.26-.09.29-.16.33-.06.03-.12.05-.19.05ZM369.39,23.6c-.27,2.64-.61,7.6.03,12.12.88,6.19,3.64,11.89,4.93,14.29.02-1.28.03-2.96.03-3.79-.01-2.11-.26-3.8-1.67-9.68-1.25-5.2-2.53-10.06-3.31-12.94Z"/>
          <path class="cls-2" d="M371.34,57.42s-.09,0-.14-.03c-.15-.06-.2-.12-.23-.31h0s0-.02,0-.04c0-.04-.01-.09-.02-.14-.58-.77-5.13-6.95-7.13-13.59-1.71-5.66-1.66-11.95-1.66-12.01,0-.18.13-.33.3-.36.17-.04.35.05.42.22.03.06,2.71,6.15,5.38,12.75,1.95,4.83,2.5,6.49,2.8,8.43.44,2.77.61,3.96.64,4.5l.02.15h-.02c0,.26-.05.3-.12.36-.07.05-.15.08-.23.08ZM362.95,33.22c.11,2.27.47,6.21,1.58,9.88,1.55,5.15,4.68,10.03,6.2,12.22-.14-1.02-.32-2.22-.42-2.87-.3-1.88-.84-3.5-2.76-8.27-1.8-4.46-3.61-8.68-4.6-10.96Z"/>
          <path class="cls-2" d="M388.31,35.75c-.11,0-.21-.05-.28-.13-.1-.12-.12-.19-.06-.38h0s.01-.03.02-.06c.02-.05.03-.1.05-.16-.22-1.03-1.76-8.86-.37-16.44,1.18-6.47,4.57-13.1,4.6-13.17.08-.16.26-.24.43-.19.17.05.29.21.28.38,0,.07-.38,7.29-1.05,15.05-.49,5.66-.78,7.57-1.49,9.73-1,3.03-1.45,4.33-1.69,4.9l-.07.21h-.02c-.12.23-.18.24-.26.26-.02,0-.05,0-.07,0ZM392.12,7.46c-1.07,2.37-2.92,6.85-3.72,11.24-1.1,6.02-.32,12.22.13,14.89.41-1.18.93-2.69,1.18-3.46.64-1.96.94-3.61,1.46-9.56.47-5.36.79-10.46.94-13.12Z"/>
          <path class="cls-2" d="M394.25,29.61c-.12,0-.23-.05-.3-.15-.1-.12-.11-.2-.04-.38h0s.02-.04.04-.09c.01-.03.03-.07.04-.1-.16-.96-1.21-7.99.51-14.93,1.47-5.94,5.04-12.15,5.08-12.21.09-.15.27-.22.44-.17.17.06.27.22.26.4,0,.07-.74,6.64-1.79,13.73-.76,5.17-1.14,6.92-1.93,8.92-1.15,2.88-1.63,4.08-1.89,4.59l-.06.15h-.02c-.13.21-.19.22-.28.24-.02,0-.03,0-.05,0ZM399.3,3.84c-1.15,2.24-3.09,6.33-4.08,10.3-1.34,5.43-.96,10.92-.67,13.38.45-1.09,1.02-2.47,1.3-3.17.71-1.8,1.08-3.32,1.88-8.75.71-4.76,1.27-9.29,1.56-11.76Z"/>
        </g>
      </g>
      <g>
        <path class="cls-1" d="M382.83,94.4c-.08,0-.17,0-.25,0-3.12-.09-5.2-1.81-5.96-2.54-1.21-1.35-2.06-2.93-2.47-4.61-.89-3.58.4-6.61.99-7.74l7.6-13.31,7.72,13.43c.46.78,2.65,4.9.88,9.07-.51,1.2-1.29,2.27-2.31,3.18-.61.59-2.86,2.53-6.21,2.53ZM382.74,68.2l-6.73,11.78c-.53,1.02-1.7,3.77-.9,7.02.38,1.52,1.15,2.96,2.22,4.16.64.63,2.49,2.15,5.26,2.23,3.09.11,5.18-1.7,5.75-2.25.93-.83,1.62-1.78,2.07-2.84,1.58-3.73-.41-7.46-.82-8.17l-6.85-11.92Z"/>
        <path class="cls-1" d="M382.87,91c-.18,0-.34-.13-.37-.31-.04-.2.1-.4.3-.44.87-.16,2.15-.57,3.26-1.65,1.82-1.77,1.9-4.11,1.88-4.79,0-.21.16-.38.36-.39.21,0,.38.16.39.36.02.75-.06,3.36-2.1,5.35-1.25,1.22-2.68,1.68-3.65,1.85-.02,0-.04,0-.07,0Z"/>
      </g>
      <path class="cls-1" d="M231.75,52.34v42.3h-3.97v-28.07l-6.29,28.07h-3.28l-6.24-28.07v28.07h-3.97v-42.3h3.97l7.88,34.31,7.93-34.31h3.97Z"/>
      <path class="cls-1" d="M247.77,85.44h-8.25l-1.32,9.2h-3.97l6.56-42.3h5.66l6.61,42.3h-3.97l-1.32-9.2ZM247.19,81.48l-3.54-24.53-3.54,24.53h7.08Z"/>
      <path class="cls-1" d="M271.13,56.31l-11.9,34.37h11.9v3.97h-15.86v-3.97l11.84-34.37h-11.84v-3.97h15.86v3.97Z"/>
      <path class="cls-1" d="M291.65,63.45v20.04c0,8.51-2.75,11.68-8.78,11.68s-8.72-3.17-8.72-11.68v-20.04c0-8.51,2.75-11.63,8.72-11.63s8.78,3.12,8.78,11.63ZM287.68,63.18c0-5.55-1.06-7.4-4.81-7.4s-4.76,1.85-4.76,7.4v20.57c0,5.6,1.06,7.46,4.76,7.46s4.81-1.85,4.81-7.46v-20.57Z"/>
      <path class="cls-1" d="M315.38,52.34v42.3h-3.97l-12.37-31.78v31.78h-3.97v-42.3h3.97l12.37,31.78v-31.78h3.97Z"/>
      <g>
        <path class="cls-1" d="M17.5,84.49c0,6.71-2.43,10.68-8.25,10.68-6.82,0-9.25-3.81-9.25-14.86h3.97c0,9.04,1.32,10.89,5.29,10.89,2.96,0,4.28-1.32,4.28-6.71s-1.96-7.4-6.08-10.52c-3.75-2.85-7.08-5.97-7.08-12.37,0-5.82,2.49-9.78,8.35-9.78s8.62,3.97,8.62,12.69h-3.97c0-7.4-1.85-8.72-4.65-8.72s-4.39,1.32-4.39,5.82,2.06,6.45,5.29,8.94c4.55,3.38,7.88,6.4,7.88,13.96Z"/>
        <path class="cls-1" d="M34.99,85.44h-8.25l-1.32,9.2h-3.97l6.56-42.3h5.66l6.61,42.3h-3.97l-1.32-9.2ZM34.41,81.48l-3.54-24.53-3.54,24.53h7.08Z"/>
        <path class="cls-1" d="M65.06,52.34v42.3h-3.97l-12.37-31.78v31.78h-3.97v-42.3h3.97l12.37,31.78v-31.78h3.97Z"/>
        <path class="cls-1" d="M84.15,56.31h-6.24v38.33h-3.97v-38.33h-6.24v-3.97h16.44v3.97Z"/>
        <path class="cls-1" d="M104.29,83.49c0,8.51-2.75,11.68-8.78,11.68s-8.72-3.17-8.72-11.68v-31.14h3.97v31.41c0,5.6,1.06,7.46,4.76,7.46s4.81-1.85,4.81-7.46v-31.41h3.97v31.14Z"/>
        <path class="cls-1" d="M119.78,85.44h-8.25l-1.32,9.2h-3.97l6.56-42.3h5.66l6.61,42.3h-3.97l-1.32-9.2ZM119.2,81.48l-3.54-24.53-3.54,24.53h7.08Z"/>
        <path class="cls-1" d="M145.68,94.64h-3.97c-.53-.63-.58-2.17-.58-3.75v-7.35c0-6.66-4.23-6.77-7.67-6.77h-1.96v17.87h-3.97v-42.3h5.92c9.83,0,11.68,3.81,11.68,11.53v.95c0,5.08-1.11,8.62-4.97,10.36,3.17,1,4.92,3.38,4.92,8.72v6.98c0,1.59.05,3.12.58,3.75ZM133.47,72.81c6.66,0,7.72-2.7,7.72-7.98v-.95c0-5.66-1.06-7.56-7.72-7.56h-1.96v16.5h1.96Z"/>
        <path class="cls-1" d="M152.55,52.34v42.3h-3.97v-42.3h3.97Z"/>
        <path class="cls-1" d="M173.49,63.45v20.04c0,8.51-2.75,11.68-8.78,11.68s-8.72-3.17-8.72-11.68v-20.04c0-8.51,2.75-11.63,8.72-11.63s8.78,3.12,8.78,11.63ZM169.52,63.18c0-5.55-1.06-7.4-4.81-7.4s-4.76,1.85-4.76,7.4v20.57c0,5.6,1.06,7.46,4.76,7.46s4.81-1.85,4.81-7.46v-20.57Z"/>
        <path class="cls-1" d="M200.24,85.44h-8.25l-1.32,9.2h-3.97l6.56-42.3h5.66l6.61,42.3h-3.97l-1.32-9.2ZM199.66,81.48l-3.54-24.53-3.54,24.53h7.08Z"/>
        <path class="cls-1" d="M322.78,52.34v42.3h-3.97v-42.3h3.97Z"/>
        <path class="cls-1" d="M339.75,63.18c0-5.55-1.06-7.4-4.81-7.4s-4.76,1.85-4.76,7.4v20.57c0,5.6,1.06,7.46,4.76,7.46s4.81-1.85,4.81-7.46v-6.29h3.97v6.03c0,8.51-2.75,11.68-8.78,11.68s-8.72-3.17-8.72-11.68v-20.04c0-8.51,2.75-11.63,8.72-11.63s8.78,3.12,8.78,11.63v6.08h-3.97v-6.34Z"/>
        <path class="cls-1" d="M364.65,63.45v20.04c0,8.51-2.75,11.68-8.78,11.68s-8.72-3.17-8.72-11.68v-20.04c0-8.51,2.75-11.63,8.72-11.63s8.78,3.12,8.78,11.63ZM360.69,63.18c0-5.55-1.06-7.4-4.81-7.4s-4.76,1.85-4.76,7.4v20.57c0,5.6,1.06,7.46,4.76,7.46s4.81-1.85,4.81-7.46v-20.57Z"/>
        <polygon class="cls-1" points="284.83 43.96 284.96 43.96 289.58 43.96 283.55 49.27 280.45 49.31 284.83 43.96"/>
      </g>
    </g>
  </g>
</svg>