<?xml version="1.0" encoding="UTF-8"?>
<svg id="Capa_2" data-name="Capa 2" xmlns="http://www.w3.org/2000/svg" viewBox="0 0 125.74 136.2">
  <defs>
    <style>
      .cls-1 {
        stroke: #000;
        stroke-linecap: round;
        stroke-linejoin: round;
      }
    </style>
  </defs>
  <g id="Layer_1" data-name="Layer 1">
    <g>
      <path class="cls-1" d="M57.56,114.17c16.92,0,33.84,0,50.76,0,1.07,0,2.15,0,3.22.03,1.62.04,2.55.95,2.56,2.5.01,2.94.22,5.96-.3,8.82-.99,5.43-6.1,9.66-11.65,10.15-.4.04-.81.02-1.21.02-28.87,0-57.75.02-86.62-.02-6.79-.01-11.94-3.98-13.4-10.55-.6-2.7-.41-5.59-.37-8.4.02-1.49,1.01-2.45,2.61-2.51,1.07-.04,2.15-.04,3.22-.04,17.06,0,34.11,0,51.17,0ZM108.78,119.57H6.24c-1.09,6.96,1.87,10.77,8.73,10.79,28.3.07,56.59-.07,84.89.12,5.6.04,10.41-4.65,8.93-10.9Z"/>
      <path class="cls-1" d="M97.9,86.66c0,2.78,0,5.03,0,7.28,0,3.36.02,6.71,0,10.07-.03,3.26-.6,4.28-2.34,4.34-1.89.07-2.53-1.06-2.57-4.52,0-.81,0-1.61,0-2.42,0-12.22,0-24.43,0-36.65,0-1.47,0-2.93,0-4.62-1.06-.25-1.92-.63-2.78-.63-21.88-.03-43.76-.02-65.64,0-.65,0-1.3.17-2.36.31-.07,1.48-.19,2.9-.19,4.32-.01,12.89,0,25.77,0,38.66,0,1.07.02,2.15-.05,3.22-.1,1.4-.92,2.18-2.32,2.32-1.45.14-2.32-.61-2.55-1.99-.19-1.19-.29-2.4-.3-3.6-.02-14.36-.01-28.73,0-43.09,0-.8-.02-1.62.08-2.41.2-1.65.99-2.76,2.84-2.73.67,0,1.34-.02,2.01-.02,29,0,57.99-.01,86.99.02,7.6,0,13.16,3.97,15.65,10.99,3.54,10-3.87,20.86-14.49,21.15-3.75.1-7.5.02-11.96.02ZM98.11,81.73c3.02,0,5.55.02,8.07,0,1.34-.01,2.7.03,4-.21,1.3-.24,2.61-.67,3.8-1.25,4.17-2.05,6.3-6.15,5.83-10.96-.41-4.27-3.55-8.47-7.86-9.11-4.31-.64-8.77-.33-13.17-.37-.26,0-.53.52-.68.68v21.23Z"/>
      <path class="cls-1" d="M59.93,18.98c0,4.82,0,9.64,0,14.46,0,.8.24,1.78-.14,2.36-.5.78-1.48,1.71-2.27,1.73-.79.01-1.87-.86-2.33-1.64-.42-.72-.21-1.82-.21-2.76-.01-9.37-.02-18.74-.01-28.12,0-.93-.2-2.02.2-2.76.43-.8,1.45-1.74,2.23-1.75.79-.01,1.87.88,2.33,1.66.42.72.2,1.82.2,2.76.01,4.69,0,9.37,0,14.06Z"/>
      <path class="cls-1" d="M38.19,24.68c0,3.34,0,6.69,0,10.03,0,1.67-.5,2.92-2.43,2.98-1.57.05-2.43-.84-2.45-2.94-.07-6.95-.08-13.91,0-20.86.02-1.95,1.11-2.95,2.63-2.81,1.65.16,2.25,1.24,2.26,2.77,0,3.61,0,7.22,0,10.83Z"/>
      <path class="cls-1" d="M81.67,24.64c0,3.34-.01,6.68,0,10.02,0,1.69-.55,2.9-2.43,3-1.56.09-2.47-.81-2.5-2.89-.08-6.81-.03-13.62-.03-20.43,0-1.57.27-3.05,2.19-3.24,1.49-.15,2.86.96,2.79,3.12-.11,3.47-.03,6.94-.03,10.42Z"/>
    </g>
  </g>
</svg>