<?xml version="1.0" encoding="UTF-8"?>
<svg id="Capa_2" data-name="Capa 2" xmlns="http://www.w3.org/2000/svg" viewBox="0 0 214.27 135.17">
  <g id="Layer_1" data-name="Layer 1">
    <g>
      <path d="M23.86,57.38c-2.01,0-3.65-1.63-3.66-3.64l-.12-30.54c0-.15,0-.3.03-.45.51-4.26,2.05-8.28,4.44-11.63C31.15,1.87,41.83.55,44.95.36c.07,0,.14,0,.21,0l123.81-.35c2.21,0,13.58.43,20.3,10.09,3.47,4.99,4.14,10.23,4.09,13.74l.14,29.17c0,2.02-1.62,3.67-3.64,3.68h-.02c-2.01,0-3.65-1.63-3.66-3.64l-.14-29.25c.04-2.51-.42-6.13-2.78-9.53-4.73-6.8-13.28-6.94-14.26-6.95l-123.71.35c-1.85.12-10.03,1.05-14.78,7.7-1.64,2.3-2.72,5.08-3.11,8.04l.12,30.3c0,2.02-1.62,3.66-3.64,3.67h-.01Z"/>
      <path d="M3.8,135.17c-2.01,0-3.65-1.63-3.66-3.64L0,90.26c0-.14,0-.28.02-.42.61-5.5,2.44-10.7,5.3-15.04,7.98-12.13,21-13.87,24.79-14.11.07,0,.15,0,.22,0l154.27-.48c1.65-.02,16.35.3,24.62,13.2,4.13,6.43,4.92,13.18,4.86,17.7l.18,39.45c0,2.02-1.62,3.67-3.64,3.67-2,.05-3.67-1.62-3.67-3.64l-.18-39.52c.05-3.59-.55-8.81-3.7-13.71-6.16-9.61-17.21-9.84-18.44-9.83l-154.16.48c-3.08.22-13,1.64-19.05,10.83-2.19,3.33-3.61,7.34-4.12,11.63l.15,41.05c0,2.02-1.62,3.66-3.64,3.67h-.01Z"/>
      <path d="M40.68,56.94c-2.02,0-3.65-1.63-3.66-3.65l-.04-18.04c0-.09,0-.19.01-.28.2-2.61.77-4.99,1.7-7.09,2.88-6.5,7.98-7.47,9.48-7.61.11-.01.22-.02.33-.02l45.5-.21c3-.05,7.4,1.87,9.73,7.24,1.33,3.07,1.58,6.23,1.56,8.34l.05,17.23c0,2.02-1.63,3.66-3.65,3.67h-.01c-2.01,0-3.65-1.63-3.66-3.65l-.05-17.28c.01-1.2-.1-3.42-.96-5.41-1.14-2.62-2.7-2.82-3-2.83l-45.26.21c-.54.09-2.17.58-3.37,3.28-.57,1.27-.94,2.84-1.08,4.53l.04,17.9c0,2.02-1.63,3.66-3.65,3.67h0Z"/>
      <path d="M113.07,56.35c-2.02,0-3.65-1.63-3.66-3.65l-.04-18.04c0-.09,0-.19.01-.28.2-2.61.77-4.99,1.7-7.08,2.88-6.5,7.98-7.47,9.48-7.61.11-.01.22-.02.33-.02l45.5-.21h.05c3.03,0,7.37,1.89,9.68,7.24,1.33,3.07,1.58,6.23,1.56,8.34l.05,17.23c0,2.02-1.63,3.66-3.65,3.67h-.01c-2.01,0-3.65-1.63-3.66-3.65l-.05-17.28c.01-1.2-.1-3.42-.96-5.41-1.14-2.62-2.7-2.82-3-2.83l-45.26.21c-.54.09-2.17.58-3.37,3.28-.57,1.27-.94,2.84-1.08,4.53l.04,17.9c0,2.02-1.63,3.66-3.65,3.67h0Z"/>
      <rect x="4.64" y="104.37" width="206.12" height="7.9"/>
    </g>
  </g>
</svg>