<?xml version="1.0" encoding="UTF-8"?>
<svg id="Capa_2" data-name="Capa 2" xmlns="http://www.w3.org/2000/svg" viewBox="0 0 237.29 216.26">
  <defs>
    <style>
      .cls-1 {
        fill: #020202;
      }
    </style>
  </defs>
  <g id="Layer_1" data-name="Layer 1">
    <g>
      <path class="cls-1" d="M114.25,9.37c1.32-3.12,2.59-6.27,3.95-9.37,1.44,3.12,2.9,6.25,4.34,9.38-2.77-.25-5.52-.16-8.29-.01Z"/>
      <path class="cls-1" d="M0,49.32c33.05-11.68,66.06-23.48,99.1-35.2,1.95-.46,4-.14,5.99-.2-15.94,13.23-31.86,26.47-47.73,39.78-4.54-4.46-11.07-5.83-17.2-6.33-12.95-.76-25.88,1.27-38.47,4.14-.56-.74-1.13-1.46-1.69-2.19Z"/>
      <path class="cls-1" d="M66.67,51.84c15.19-12.66,30.36-25.32,45.56-37.95,1.34.02,2.68.01,4.03,0,0,13.33,0,26.66,0,39.98-15.99-4.97-33.24-5.52-49.59-2.03Z"/>
      <path class="cls-1" d="M120.83,13.89c1.47,0,2.95.01,4.43,0,15.04,12.48,30.16,24.87,45.13,37.45-16.41-3.37-33.47-1.49-49.56,2.65.02-13.36,0-26.73,0-40.09Z"/>
      <path class="cls-1" d="M132.44,13.91c1.83.07,3.72-.26,5.51.27,33.11,11.79,66.23,23.54,99.34,35.33-1.04.97-2.04,1.98-3.02,3.01-10.2-4.05-21.34-6.06-32.29-4.84-7.3.78-14.5,2.9-20.91,6.53-16.18-13.47-32.41-26.88-48.62-40.3Z"/>
      <path class="cls-1" d="M116.23,58.7c1.5.72,3.11.71,4.64.06-.04,27.67,0,55.34-.02,83.02,9.82.02,19.65-.08,29.47.04,2.36.17,2.61,3.97.32,4.48-4.75.18-9.51.02-14.25.07-.51.87-1.06,1.72-1.8,2.41-4.59,4.56-9.15,9.15-13.74,13.72,0,16.37,0,32.73,0,49.1,10.09,0,20.17,0,30.26,0,.02-11.8-.03-23.6.02-35.4.06-2.97,2.89-5.3,5.8-5.13,9.55,0,19.11,0,28.65.06,1.48.09,2.58-1.16,2.58-2.59,1.84-19.58,3.79-39.14,5.6-58.72,5.2-.01,10.4,0,15.61,0-3.41,23.16-6.87,46.31-10.12,69.49,2.23,10.79,4.68,21.54,7.02,32.31,4.9.03,9.8-.06,14.7.04,2.02.03,2.7,3.05,1.09,4.12-1.27.76-2.82.44-4.22.51-66.92-.01-133.84,0-200.75,0-1.09,0-2.46-.16-2.95-1.28-.91-1.35.28-3.4,1.88-3.35,7.86-.11,15.73.11,23.59-.11,2.21-10.62,4.64-21.19,6.9-31.79,0-.23.03-.69.03-.91-3.3-23-6.78-45.99-10.02-68.99,5.17-.03,10.34,0,15.5-.02,1.85,19.41,3.73,38.82,5.58,58.24.05,1.11.3,2.56,1.57,2.88,3.87.55,7.79-.05,11.68.11,6.34.07,12.68-.15,19.01.2,2.87.31,5.01,3.18,4.85,6,0,11.45,0,22.91,0,34.37,7.18,0,14.36,0,21.54,0,0-16.31,0-32.62,0-48.93-5.07-5.41-10.06-10.89-15.13-16.3-4.78,0-9.57.04-14.35-.01-1.62.07-2.86-2.05-1.88-3.4.4-.86,1.41-1.23,2.32-1.18,9.69,0,19.37-.02,29.05.01-.02-27.7.04-55.39-.03-83.09ZM107.47,146.37c3.65,4,7.37,7.94,11.02,11.94,3.96-4,7.95-7.96,11.92-11.93-7.65-.01-15.3,0-22.95,0ZM57,181.87c-3.32,9.91-6.62,19.82-9.96,29.73,13.63,0,27.26,0,40.89,0,0-9.76,0-19.52,0-29.27.19-1.53-1.21-2.82-2.72-2.6-8.55,0-17.11-.02-25.67.01-1.3-.12-2.28.94-2.54,2.13ZM157.88,182.33c-.03,9.75,0,19.5-.01,29.25,13.63.04,27.26,0,40.89.02-3.39-10.07-6.72-20.16-10.13-30.23-.3-1.09-1.4-1.73-2.49-1.64-8.55-.02-17.11-.02-25.67,0-1.48-.18-2.75,1.14-2.6,2.6Z"/>
    </g>
  </g>
</svg>