<?xml version="1.0" encoding="UTF-8"?>
<svg id="Capa_2" data-name="Capa 2" xmlns="http://www.w3.org/2000/svg" viewBox="0 0 101.2 96.59">
  <defs>
    <style>
      .cls-1 {
        fill: #6e4c36;
      }
    </style>
  </defs>
  <g id="Layer_1" data-name="Layer 1">
    <path class="cls-1" d="M20.51,3.81c11.32-5.5,24.79-4.56,36.35-.28,9.53,3.75,18.46,9.15,26.2,15.85-5.36-1.84-10.19-4.94-15.63-6.59-10.32-3.74-22.2-5.16-32.53-.72-4.75,1.85-9.29,4.9-11.73,9.51-4.77,8.59-3.01,19.5,2.01,27.59,7.31,11.45,18.83,19.96,31.62,24.37,10.18,3.25,21.53,4.19,31.7.4,4.59-1.58,8.54-4.46,12.7-6.88-6.86,14.33-20.46,25.51-36.22,28.35-10.74,1.73-22.34,2.14-32.32-2.89-14.97-6.66-26.46-20.31-30.8-36.07-2.79-9.49-2.19-19.66.17-29.17C4.85,17.52,11.1,8.21,20.51,3.81Z"/>
  </g>
</svg>