<?xml version="1.0" encoding="UTF-8"?>
<svg id="Capa_2" data-name="Capa 2" xmlns="http://www.w3.org/2000/svg" viewBox="0 0 187.45 209.13">
  <g id="Layer_1" data-name="Layer 1">
    <g>
      <path d="M37.5,3.74C47.35.1,58.22-1.06,68.55,1.05c18.46,3.23,34.49,16.22,42.36,33.11,19.52-4.25,40.96,6.12,49.92,23.94,3.66-1.24,7.93-1.55,11.23.8,6.11,3.35,7.1,12.67,2.39,17.59-1.79,2.01-4.38,3.01-6.78,4.07-28.65,12.76-57.25,25.66-85.9,38.42-5.83,2.54-13.45-.74-15.22-6.93-2.24-5.6,1.03-12.23,6.44-14.57-6.48-16.76-2.06-37.08,10.99-49.49-2.22-5.7-6.24-10.81-11.63-13.83-7.92-4.9-18.36-5.3-26.68-1.19-8.89,4.28-15.17,13.58-15.59,23.47.05,3.32.16,6.67.96,9.91,8.38,45.14,16.77,90.28,25.11,135.43.53,2.99-3.25,3.44-5.12,1.97-8.32-46.63-17.4-93.14-25.84-139.75-2-10.17,1.25-21.2,8.43-28.68,7.27-7.98,18.68-11.96,29.33-10.22,10.92,1.64,20.7,9.05,25.29,19.09,5.24-3.8,11.18-6.48,17.26-8.66-6.51-13.77-19.23-24.39-33.97-28.24-6.57-2.08-13.57-1.89-20.36-1.45-14.56,1.97-28.26,10.18-36.5,22.41-8.08,11.46-11.02,26.19-8.36,39.92,8.57,46.05,17.02,92.13,25.66,138.17.62,3.26-4.93,3.93-5.32.67C18.55,162.99,10.24,119.01,2.1,75c-2.77-11.68-3.13-24.22.92-35.65C8.47,23.15,21.46,9.68,37.5,3.74ZM94.33,46.56c-15.91,9.85-23.38,31.31-16.39,48.79,26.09-11.56,52.07-23.4,78.21-34.86-6.83-12.98-20.92-21.92-35.67-21.87-9.33-.39-18.25,3.32-26.15,7.93ZM163.78,62.89c-29.2,12.83-58.22,26.07-87.38,39.01-2.77,1-5.59,3.35-5.09,6.63-.23,3.43,3.13,5.96,6.29,6.12,3.16-.7,6.01-2.35,8.96-3.61,27.17-12.13,54.3-24.33,81.48-36.44,2.58-.93,4.48-3.57,4.24-6.35-.16-4.01-4.75-7.13-8.49-5.35Z"/>
      <path d="M162.63,92.86c.81-1.95,3.39-3.44,5.01-1.45,1.69,3.49,3.35,7.02,4.68,10.67-.05,2.4-3.62,3.68-4.85,1.45-1.89-3.42-3.16-7.14-4.84-10.67Z"/>
      <path d="M140.92,101.29c1.3-1.17,3.4-.29,3.92,1.3,1.43,3.14,2.97,6.24,4.1,9.51.59,2.53-3.33,4.27-4.65,1.91-1.61-3.1-2.99-6.32-4.32-9.54-.52-1.15-.13-2.51.96-3.17Z"/>
      <path d="M116.5,113.88c-.05-2.47,2.34-2.55,4.17-2.53,1.81,3.36,3.46,6.82,4.83,10.38,1.03,1.83-.96,4.38-3.01,3.66-1.47-.12-1.69-1.82-2.35-2.84-1.25-2.86-2.82-5.63-3.64-8.67Z"/>
      <path d="M160.16,113.31c1.22-1,3.23-.4,3.83,1.01,1.43,2.93,2.71,5.93,4.01,8.91.87,1.42-.32,3.42-1.89,3.62-1.53.57-2.76-1-3.25-2.23-1.23-2.74-2.53-5.46-3.62-8.26-.56-1.01-.09-2.5.92-3.04Z"/>
      <path d="M93.39,124.74c-.72-2.54,3.03-4.42,4.52-2.21,1.69,3.46,3.59,6.91,4.61,10.62.3,2.35-2.29,2.78-4.03,2.7-1.92-3.59-3.75-7.26-5.1-11.11Z"/>
      <path d="M137.4,123.44c1.2-.44,2.89-.12,3.36,1.21,1.51,3.4,3.3,6.72,4.4,10.27-.25,2.28-3.61,3.55-4.87,1.27-1.63-3.08-2.98-6.32-4.31-9.54-.6-1.22.05-2.89,1.42-3.21Z"/>
      <path d="M179.25,125.36c1.21-.87,3.29-.7,3.89.82,1.61,3.17,3.2,6.4,4.26,9.8.46,2.46-2.58,3.57-4.27,2.19-1.8-2.91-3.02-6.14-4.38-9.27-.48-1.08-.69-2.89.49-3.55Z"/>
      <path d="M113.38,134.27c1.18-1.21,3.57-.86,4.17.81,1.55,3.25,3.24,6.51,4.21,9.99.06,2.13-2.72,3.9-4.23,2-1.84-2.61-2.82-5.7-4.21-8.57-.63-1.27-1.27-3.19.06-4.24Z"/>
      <path d="M156.48,135.46c1.18-.58,2.95-.27,3.46,1.07,1.54,3.04,2.97,6.15,4.19,9.33,1.17,2.77-3.2,4.79-4.58,2.17-1.56-2.79-2.76-5.77-3.96-8.73-.46-1.22-.59-3.3.9-3.84Z"/>
      <path d="M132.69,146.29c1.02-1.22,3.54-.85,4.13.69,1.51,3.28,3.04,6.55,4.35,9.92.22,2.52-3.61,3.89-4.84,1.57-1.58-3.03-2.95-6.19-4.25-9.35-.55-.98-.27-2.14.6-2.82Z"/>
      <path d="M109.77,156.38c1.26-.69,3.21-.48,3.84.97,1.52,3.18,3.03,6.39,4.2,9.73.67,2.59-3.39,4.02-4.64,1.84-1.5-2.82-2.77-5.77-4.03-8.7-.53-1.2-.89-3.23.64-3.83Z"/>
    </g>
  </g>
</svg>