<?xml version="1.0" encoding="UTF-8"?>
<svg id="Capa_2" data-name="Capa 2" xmlns="http://www.w3.org/2000/svg" viewBox="0 0 218.97 243.43">
  <g id="Layer_1" data-name="Layer 1">
    <g>
      <path d="M64.3.56c4.72-1.05,9.85-.68,14.19,1.54,6.57,3.18,11.23,10.09,11.43,17.42.65,8.44-4.67,16.85-12.46,20.06-6.23,2.73-13.79,2.01-19.45-1.74-5.81-3.76-9.52-10.61-9.26-17.56-.14-9.11,6.73-17.62,15.54-19.72Z"/>
      <path d="M47.14,53.6c4.59-4.41,11.19-6.83,17.55-5.78,9.49,1.44,17.78,6.62,26.18,10.91,14,6.96,27.26,15.3,40.73,23.23,1.77,1.04,3.78,2.08,4.59,4.11,1.56,3.04.28,7.19-2.78,8.76-2.01,1.16-4.56,1.02-6.56-.05-19.77-10.02-39.55-20.01-59.29-30.07-1.25-.55-2.73-1.56-4.03-.57-2.12.97-2.1,4.27,0,5.26,3.67,2.01,7.46,3.82,11.21,5.68-1.27,11.82-3.13,23.59-4.51,35.4-.34,1.7,1.28,2.75,2.54,3.5,9.49,5.28,18.97,10.58,28.45,15.88,2.97,1.61,5.19,4.72,5.32,8.16.55,18.9.76,37.83,1.24,56.74.31,4.38-2.45,8.74-6.53,10.33-4.08,1.67-9.09.28-11.81-3.15-1.64-2.01-2.33-4.61-2.34-7.16-.16-13.59-.28-27.18-.48-40.76.16-1.63-1.02-2.89-2.34-3.61-13.1-7.71-26.22-15.38-39.28-23.16-3.97-2.87-7.67-6.51-9.79-10.96,3.15-17.24,6.48-34.44,9.71-51.66.81-3.65,1.15-7.41,2.22-11Z"/>
      <path d="M9.5,57.51c.58-4.72,5.38-8.43,10.09-7.57,7.04,1.24,14.05,2.65,21.08,3.92-3.53,20.03-7.38,40.01-11.26,59.98-9.78-1.98-19.61-3.72-29.41-5.59,2.98-16.95,6.36-33.83,9.5-50.75Z"/>
      <path d="M122.42,99.41c2.11.99,4.29,1.83,6.55,2.41,4.59,30.76,9.27,61.52,13.87,92.27.62,2.19-1.8,4.51-3.93,3.63-1.37-.39-2.06-1.76-2.19-3.07-4.75-31.75-9.61-63.48-14.3-95.24Z"/>
      <path d="M41.99,132.43c6.1,3.62,12.24,7.19,18.34,10.82-5.88,23.45-12.09,46.82-18.11,70.24-1.2,5.97-8.27,9.66-13.85,7.24-4.91-1.86-7.56-7.64-6.08-12.63,6.59-25.22,13.07-50.46,19.71-75.67Z"/>
      <path d="M213.92,160.03c1.36-.45,3.04-.78,4.11.48,1.82,1.48.82,4.75-1.44,5.15-13.85,3.86-27.79,7.41-41.61,11.34-2.1,1.54-3.68,3.66-5.53,5.49-10.66,11.14-21.27,22.32-32,33.4-1.29,1.5-3.42,1.21-5.17,1.45-6.64.29-13.26.92-19.9,1.22-3.91.23-7.65,1.49-11.45,2.33-31.07,7.43-62.13,14.97-93.22,22.34-2.14.83-4.74-1.08-4.16-3.38.23-1.6,1.72-2.44,3.18-2.68,33.81-8.07,67.59-16.25,101.4-24.32,7.3-.8,14.67-.99,22.01-1.58,1.5-.2,3.37.21,4.4-1.21,11.88-12.35,23.71-24.74,35.54-37.14.85-.97,1.99-1.64,3.26-1.93,13.53-3.66,27.07-7.3,40.6-10.98Z"/>
    </g>
  </g>
</svg>