<?xml version="1.0" encoding="UTF-8"?>
<svg id="Capa_2" data-name="Capa 2" xmlns="http://www.w3.org/2000/svg" viewBox="0 0 18.18 28.21">
  <defs>
    <style>
      .cls-1 {
        fill: #22821a;
      }
    </style>
  </defs>
  <g id="Layer_1" data-name="Layer 1">
    <g>
      <path class="cls-1" d="M8.99,28.21c-.08,0-.17,0-.25,0-3.12-.09-5.2-1.81-5.96-2.54-1.21-1.35-2.06-2.93-2.47-4.61-.89-3.58.4-6.61.99-7.74L8.9,0l7.72,13.43c.46.78,2.65,4.9.88,9.07-.51,1.2-1.29,2.27-2.31,3.18-.61.59-2.86,2.53-6.21,2.53ZM8.9,2.01L2.17,13.79c-.53,1.02-1.7,3.77-.9,7.02.38,1.52,1.15,2.96,2.22,4.16.64.63,2.49,2.15,5.26,2.23,3.09.11,5.18-1.7,5.75-2.25.93-.83,1.62-1.78,2.07-2.84,1.58-3.73-.41-7.46-.82-8.17L8.9,2.01Z"/>
      <path class="cls-1" d="M9.03,24.81c-.18,0-.34-.13-.37-.31-.04-.2.1-.4.3-.44.87-.16,2.15-.57,3.26-1.65,1.82-1.77,1.9-4.11,1.88-4.79,0-.21.16-.38.36-.39.21,0,.38.16.39.36.02.75-.06,3.36-2.1,5.35-1.25,1.22-2.68,1.68-3.65,1.85-.02,0-.04,0-.07,0Z"/>
    </g>
  </g>
</svg>