<?xml version="1.0" encoding="UTF-8"?>
<svg id="Capa_2" data-name="Capa 2" xmlns="http://www.w3.org/2000/svg" viewBox="0 0 163.31 208.19">
  <defs>
    <style>
      .cls-1 {
        fill: #010101;
      }
    </style>
  </defs>
  <g id="Layer_1" data-name="Layer 1">
    <g>
      <path class="cls-1" d="M13.92.07C58.57-.05,103.22.05,147.87,0c5.97-.18,11.92,3.41,14.25,8.96,1.52,3.14,1.13,6.7,1.18,10.07-.02,58.15,0,116.29-.02,174.44.25,7.83-6.84,14.67-14.57,14.68-44.69.04-89.39.04-134.09,0-7.73,0-14.83-6.84-14.61-14.65C0,133.9,0,74.3.01,14.69-.2,7.12,6.46.42,13.92.07ZM5.35,14.71c-.11,6.64.04,13.28-.06,19.92,50.91.07,101.81.03,152.72.03-.05-6.64.04-13.3-.05-19.93,0-4.93-4.36-9.38-9.32-9.32-44.39-.04-88.79,0-133.18-.02-5.2-.43-10.15,4.08-10.11,9.32ZM5.31,40.22c.05,51.06-.04,102.11.04,153.16-.09,5.29,4.86,9.85,10.12,9.43,44.38-.02,88.76.02,133.15-.02,4.97.03,9.39-4.41,9.35-9.38.06-51.06,0-102.13.04-153.19-50.91-.04-101.8-.04-152.7,0Z"/>
      <path class="cls-1" d="M18.44,10.82c5.68-1.69,12.23,3.2,11.82,9.19.43,5.84-5.78,10.7-11.37,9.36-5.55-1.01-9.23-7.55-6.95-12.78,1.11-2.79,3.57-5.04,6.49-5.78ZM19.4,16.2c-2.95.9-3.71,5.22-1.18,7,2.23,2.09,6.31.52,6.67-2.48.63-2.98-2.71-5.69-5.49-4.52Z"/>
      <path class="cls-1" d="M43.01,10.88c6.91-2.28,14.21,5.3,11.59,12.12-1.85,6.71-11.44,8.84-15.98,3.58-5.03-4.79-2.32-14.15,4.39-15.7ZM42.13,22.3c1.51,2.46,4.8,2.14,6.78.46.33-.95.68-1.88,1.05-2.82-.61-1.84-1.76-3.83-3.93-3.98-3.29-.54-5.96,3.63-3.91,6.34Z"/>
      <path class="cls-1" d="M67.59,10.93c5.77-1.97,12.37,2.91,12.3,8.97.29,6.06-6.17,11.12-11.99,9.36-5.25-1.19-8.45-7.36-6.56-12.38,1-2.82,3.37-5.09,6.25-5.95ZM66.96,17.15c-.88,1.86-.95,3.8-.08,5.67,1.67.96,3.79,2.04,5.57.7,2.67-1.39,2.6-5.66-.07-7-1.75-1.23-3.77-.17-5.43.63Z"/>
      <path class="cls-1" d="M108.66,11.56c3.65-.42,7.37-.23,11.04-.12,2.78.11,3.08,4.53.53,5.19-3.61.3-7.26.18-10.88.09-2.67-.09-3.25-4.35-.68-5.15Z"/>
      <path class="cls-1" d="M128.86,11.66c3.65-.64,7.44-.26,11.15-.25,2.94-.02,3.32,4.92.33,5.24-3.51.24-7.06.16-10.57.05-2.56-.19-3.3-4.01-.91-5.05Z"/>
      <path class="cls-1" d="M109.76,23.42c3.33.25,6.66-.06,9.98.06,2.86.31,3.02,4.9.12,5.31-3.55.18-7.12.17-10.67,0-3.25-.39-2.63-5.57.56-5.38Z"/>
      <path class="cls-1" d="M128.35,23.7c4.45-.18,9.05-.93,13.42.32.18.52.57,1.56.76,2.08-.17.54-.49,1.61-.65,2.16-4.05,1.13-8.34.59-12.48.53-2.49-.62-2.17-3.36-1.05-5.07Z"/>
      <path class="cls-1" d="M75.97,61.18c15.15-1.41,30.85,2.95,42.84,12.37,10.63,8.12,18.35,19.9,21.71,32.82,3.36,12.88,2.3,26.88-3.08,39.07-8.98,21.45-31.21,36.36-54.46,36.59-15.77.41-31.62-5.64-43.04-16.52-10.26-9.62-17.04-22.93-18.64-36.91-1.76-13.93,1.7-28.4,9.4-40.12,9.85-15.41,27.06-25.75,45.27-27.31ZM77.31,66.45c-13.16.89-25.79,6.93-35.05,16.28-8.32,8.33-13.76,19.42-15.4,31.06-2.03,13.73,1.54,28.14,9.53,39.46,7.45,10.38,18.42,18.3,30.84,21.49,14.27,3.87,30.06,1.75,42.75-5.85,9.47-5.74,17.36-14.23,21.94-24.34,4.4-9.56,6.08-20.41,4.51-30.84-1.95-13.9-9.4-26.99-20.55-35.56-10.75-8.6-24.86-12.92-38.57-11.71Z"/>
      <path class="cls-1" d="M85.99,80.11c11.41,1.09,22.2,7.23,29.02,16.44,6.68,8.81,9.65,20.38,7.84,31.3-2.02,13.4-11.06,25.56-23.4,31.2-11.11,5.26-24.57,5.28-35.66-.04-9.81-4.51-17.56-13.13-21.28-23.23-3.23-8.68-3.44-18.43-.49-27.22,4.15-12.88,14.96-23.42,28.02-27.06,5.16-1.53,10.61-1.84,15.95-1.41ZM52.48,99.95c-5.53,7.38-7.91,16.92-6.85,26.05,4.01-1.8,8.01-4.89,12.67-3.8,3.68.51,6.2,3.41,8.31,6.2,1.97,2.6,6.26,2.49,8.28,0,3.18-3.72,8.74-5.43,13.25-3.12,2.95,1.1,4.52,4.83,7.97,4.72,4.25.18,5.46-5.02,9.2-6.14,4.16-2.02,8.83-.39,12.52,1.87.6-8.27-1.03-16.81-5.63-23.8-6.5-10.04-18.13-16.68-30.15-16.64-11.48-.28-22.75,5.51-29.57,14.67ZM46.8,131.74c3.92,13.09,15.65,23.6,29.27,25.46,9.4,1.6,19.38-.89,27.02-6.56,6.49-4.59,10.87-11.47,13.58-18.84-2.35-1.87-5.15-4.11-8.35-3.41-2.16.61-3.28,2.69-4.82,4.13-3.75,3.69-10.37,3.92-14.28.33-1.64-1.27-3.06-3.36-5.39-3.18-2.66-.44-4.3,1.92-6.05,3.46-4.16,3.84-11.39,3.41-15.05-.94-1.82-2.16-3.63-5.36-6.97-4.83-3.2.85-6.22,2.53-8.96,4.38Z"/>
    </g>
  </g>
</svg>