<?xml version="1.0" encoding="UTF-8"?>
<svg id="Capa_2" data-name="Capa 2" xmlns="http://www.w3.org/2000/svg" viewBox="0 0 474.24 193.68">
  <defs>
    <style>
      .cls-1 {
        fill: #d4af38;
      }

      .cls-2 {
        fill: #6e4c36;
      }
    </style>
  </defs>
  <g id="Layer_1" data-name="Layer 1">
    <g>
      <g>
        <path class="cls-1" d="M55.28,114.67c2.42-3.18,5.83-5.69,9.81-6.41,2.63-.21,4.78,3.13,3.16,5.33-3.7,6.22-9.8,10.37-15.34,14.76-1.1,3.31-1.66,6.78-2.65,10.13,17.35-5.92,35.73-7.66,53.9-9.1,23.7-.87,47.55-1.91,71.16.9,2.57-3.02,3.59-8.43,7.83-9.35,4.03.6.18,3.97-.89,5.69-6.97,11.05-12.73,22.85-17.87,34.85,4.73-8.07,9.67-16.01,14.97-23.72,4.93-6.65,9.54-13.7,15.88-19.12,1.86-1.93,5.59-.98,5.88,1.81.37,4.66-.87,9.56.9,14.04.57,2.32,4,1.37,4.42,3.83-3.15-.61-7.11-1.47-8.46-4.81-1.43-4.21-.79-8.75-.48-13.08-20.83,20.3-33.93,46.85-45.66,73.08-.77.04-2.31.13-3.08.18-.69-3.02.99-5.78,1.86-8.56,6.8-18.48,14.57-36.66,24.16-53.87-29.17-1.67-58.48-1.28-87.53,1.88-12.56,1.55-25.36,3.41-36.99,8.67-1.24.34-1.47,1.77-1.99,2.75-6.68,16.22-19.36,30.69-36.2,36.62-4,1.57-9.36,1.11-11.62-2.99-1.6-4.76,1.32-9.49,4.5-12.83,11.48-11.37,26.17-18.63,40.83-24.97,3.38-8.48,3.92-18.22,9.5-25.71ZM53.47,125.33c5.42-4.01,11.12-8.55,13.72-14.97-7.34,1.19-11.44,8.57-13.72,14.97ZM10.88,164.27c-4.12,4.02-9.43,9.03-8.16,15.37,4.36.91,8.59-1.1,12.34-3.1,12.27-7.5,22.31-18.8,28.18-31.93-11.76,4.65-22.76,11.42-32.36,19.66Z"/>
        <path class="cls-1" d="M338.03,121.77c2.33-1.75,4.18-4.35,7.03-5.28,1.36.4,2.46,1.35,3.66,2.11-3.43,6.91-8.5,13.21-9.87,20.98-.56,3.28,0,7.37,3.16,9.18,3.6,2.18,8.07,1.51,12.09,1.45,19.25-1.68,38.23-5.54,57.13-9.41,19.89-4.41,39.75-9.27,60.04-11.51,1-.06,2.21-.33,2.97.55-37.05,5.41-72.98,16.65-110.08,21.76-7.75.77-16.14,2.05-23.31-1.88-3.14-1.48-5.43-4.58-5.69-8.07-.76-5.78,2.1-11.05,3.95-16.32-8.05,4.89-15,11.39-23.02,16.35-1.8.93-3.74,3.06-5.9,1.91-1.25-.36-1.92-1.74-1.8-2.96,2.65-4.33,6.54-7.7,9.87-11.49-11.76,1.68-23.49,3.62-35.28,5.11-15.17,1.6-30.36,2.91-45.58,3.97-.75-.58-1.51-1.15-2.26-1.72,28.44-1.78,56.76-5.27,84.96-9.26,3.7-1.96,6.54-5.65,10.83-6.5,2.42-.67,4.79.45,7.1,1.03ZM318.89,135.43c5.5-3.38,10.72-7.39,15.21-12.02-6.08,2.49-10.67,7.45-15.21,12.02Z"/>
        <path class="cls-1" d="M205.8,136.94c8.97.69,17.98.58,26.95-.15.78.55,1.57,1.12,2.36,1.7-9.54-.02-19.14,1.28-28.62-.29l-.69-1.26Z"/>
      </g>
      <g>
        <path class="cls-2" d="M4.61,20.04C9.27,10.41,18.24,2.62,28.96.8c16.12-3.15,32.34,3.48,45.51,12.41,2.68,1.91,5.59,3.63,7.71,6.21-11.11-5.75-23.23-10.86-36.01-10.11-8.64.61-17.88,4-22.79,11.55-5.32,8.56-3.77,19.87,1.24,28.2,7.73,11.85,19.69,21.14,33.4,24.87,8.95,2.46,18.66,3.87,27.68,1,5.68-1.59,10.76-4.72,15.46-8.2-5.71,11.92-15.83,21.96-28.33,26.53-8.43,3.49-17.74,3.42-26.69,3.32C22.95,93.71,3.83,73.4.37,50.6c-.78-10.29-.69-21.19,4.24-30.56Z"/>
        <path class="cls-2" d="M131.6,1.25c13.82-2.88,28.39,1.04,40.11,8.56,12.02,7.31,22.22,18.07,27.88,31.03,4.43,10.96,5.15,24.34-1.43,34.6-8.14,12.22-22.67,18.96-36.98,20.36-10.78,1.37-21.88-.8-31.49-5.82-23.32-12.5-34.04-44.05-23.28-68.18,3.33-6.81,8.07-13.45,15.05-16.86,3.25-1.55,6.64-2.83,10.14-3.69ZM134.63,7.27c-12.03,2.19-19.46,15.52-16.99,27.1,5.94,26.19,32.61,45.55,59.33,43.46,11.74-1.23,21.35-12.48,20.76-24.26-4.34-28.63-34.19-51.57-63.1-46.3Z"/>
        <path class="cls-2" d="M224.61,3.99c11.32-5.5,24.79-4.56,36.35-.28,9.53,3.75,18.46,9.15,26.2,15.85-5.36-1.84-10.19-4.94-15.63-6.59-10.32-3.74-22.2-5.16-32.53-.72-4.75,1.85-9.29,4.9-11.73,9.51-4.77,8.59-3.01,19.5,2.01,27.59,7.31,11.45,18.83,19.96,31.62,24.37,10.18,3.25,21.53,4.19,31.7.4,4.59-1.58,8.54-4.46,12.7-6.88-6.86,14.33-20.46,25.51-36.22,28.35-10.74,1.73-22.34,2.14-32.32-2.89-14.97-6.66-26.46-20.31-30.8-36.07-2.79-9.49-2.19-19.66.17-29.17,2.82-9.76,9.07-19.07,18.48-23.47Z"/>
        <path class="cls-2" d="M312.52,17.93c4.76-8.78,13.6-15.18,23.41-17.02,12.87-1.96,26.3.69,37.59,7.14,12.73,7.12,23.6,17.97,29.74,31.29,3.74,7.97,4.66,16.95,3.96,25.66-1.63,6.06-4.72,11.72-9.15,16.2-7.23,7.54-16.8,12.69-27.05,14.62-11.12,1.53-23.03,1.23-33.29-3.81-13.56-5.81-23.28-18.44-28.08-32.11-4.73-13.65-3.69-29.11,2.87-41.97ZM339.65,7.21c-5.01,1-9.95,3.51-12.91,7.8-4.87,6.37-6.04,15.06-3.9,22.69,6.89,21.7,27.54,38.29,50.22,40.27,6.51-.15,13.71-.2,19.17-4.26,8.13-5.5,12.01-16.67,8.69-25.97-4.07-14.39-14.34-26.5-27.16-33.97-10.07-6.2-22.45-8.66-34.11-6.56Z"/>
      </g>
    </g>
  </g>
</svg>