<?xml version="1.0" encoding="UTF-8"?>
<svg id="Capa_2" data-name="Capa 2" xmlns="http://www.w3.org/2000/svg" viewBox="0 0 100.71 96.36">
  <defs>
    <style>
      .cls-1 {
        fill: #6e4c36;
      }
    </style>
  </defs>
  <g id="Layer_1" data-name="Layer 1">
    <path class="cls-1" d="M5.8,17.65C10.56,8.87,19.4,2.47,29.21.63c12.87-1.96,26.3.69,37.59,7.14,12.73,7.12,23.6,17.97,29.74,31.29,3.74,7.97,4.66,16.95,3.96,25.66-1.63,6.06-4.72,11.72-9.15,16.2-7.23,7.54-16.8,12.69-27.05,14.62-11.12,1.53-23.03,1.23-33.29-3.81-13.56-5.81-23.28-18.44-28.08-32.11C-1.8,45.97-.76,30.51,5.8,17.65ZM32.93,6.93c-5.01,1-9.95,3.51-12.91,7.8-4.87,6.37-6.04,15.06-3.9,22.69,6.89,21.7,27.54,38.29,50.22,40.27,6.51-.15,13.71-.2,19.17-4.26,8.13-5.5,12.01-16.67,8.69-25.97-4.07-14.39-14.34-26.5-27.16-33.97-10.07-6.2-22.45-8.66-34.11-6.56Z"/>
  </g>
</svg>