<?xml version="1.0" encoding="UTF-8"?>
<svg id="Capa_2" data-name="Capa 2" xmlns="http://www.w3.org/2000/svg" viewBox="0 0 195.9 140.41">
  <g id="Layer_1" data-name="Layer 1">
    <g>
      <path d="M120.61,111.44c-1.79.02-3.86,1.15-5.69,2.81-1.33,1.21-2.57,2.53-3.96,3.67-5.21,4.3-11.89,4.45-17.27.42-.96-.72-1.89-1.5-2.7-2.38-2.26-2.46-4.79-4.29-8.27-4.64-1.81-.18-2.63-1.26-2.38-2.53.28-1.45,1.36-1.82,2.68-1.87,3.29-.12,6.13.98,8.57,3.14,1.35,1.19,2.59,2.5,3.95,3.68,4.22,3.67,8.8,3.68,12.98.04,1.09-.94,2.08-1.99,3.11-3,5.64-5.5,14.85-5.08,19.85.13,1.16,1.21,2.37,2.4,3.69,3.43,3.8,2.99,8.17,2.9,11.84-.23,1.28-1.09,2.47-2.28,3.66-3.47,5.19-5.19,14.75-5.03,19.57.12.66.7,1.39,1.33,2.05,2.03,1.96,2.08,4.21,3.56,7.18,3.64,1.56.05,2.51.76,2.52,2.4.01,1.53-1.04,2.57-2.98,2.24-2.2-.37-4.48-1.01-6.39-2.1-1.94-1.11-3.49-2.89-5.18-4.42-4.68-4.24-9.49-4.21-14.07.09-1.14,1.07-2.26,2.16-3.45,3.16-5.22,4.42-12.11,4.57-17.52.34-1.51-1.18-2.83-2.59-4.24-3.9-1.92-1.79-4.14-2.84-7.57-2.83Z"/>
      <path d="M119.78,130.59c-1.79.02-3.86,1.15-5.69,2.81-1.33,1.21-2.57,2.53-3.96,3.67-5.21,4.3-11.89,4.45-17.27.42-.96-.72-1.89-1.5-2.7-2.38-2.26-2.46-4.79-4.29-8.27-4.64-1.81-.18-2.63-1.26-2.38-2.53.28-1.45,1.36-1.82,2.68-1.87,3.29-.12,6.13.98,8.57,3.14,1.35,1.19,2.59,2.5,3.95,3.68,4.22,3.67,8.8,3.68,12.98.04,1.09-.94,2.08-1.99,3.11-3,5.64-5.5,14.85-5.08,19.85.13,1.16,1.21,2.37,2.4,3.69,3.43,3.8,2.99,8.17,2.9,11.84-.23,1.28-1.09,2.47-2.28,3.66-3.47,5.19-5.19,14.75-5.03,19.57.12.66.7,1.39,1.33,2.05,2.03,1.96,2.08,4.21,3.56,7.18,3.64,1.56.05,2.51.76,2.52,2.4.01,1.53-1.04,2.57-2.98,2.24-2.2-.37-4.48-1.01-6.39-2.1-1.94-1.11-3.49-2.89-5.18-4.42-4.68-4.24-9.49-4.21-14.07.09-1.14,1.07-2.26,2.16-3.45,3.16-5.22,4.42-12.11,4.57-17.52.34-1.51-1.18-2.83-2.59-4.24-3.9-1.92-1.79-4.14-2.84-7.57-2.83Z"/>
      <g>
        <path d="M7.71,3.43c-.14-2.19,2.32-4.15,4.38-3.17,1.27.5,2.05,1.82,1.98,3.17,0,5.35,0,10.7,0,16.06,3.26,1.15,6.15,3.65,7.21,7.02,2.19,5.6-1.42,12.46-7.19,14.03-.03,21.07,0,42.13,0,63.2-.03,4.98,1.79,9.99,5.3,13.56,4.38,4.78,11.35,6.95,17.68,5.59,8.4-1.52,14.98-9.31,15.36-17.8,0-.64,0-1.27,0-1.9-.29-3.83-.55-7.81-2.26-11.32-.68,1.15-1.38,2.29-2.22,3.33-1.35,1.7-4.45,1.3-5.27-.73-.31-1.08-.33-2.38.35-3.32,1.29-1.88,2.51-3.8,3.78-5.68.84-1.33,2.67-1.87,4.1-1.18,2.8.95,4.6,3.56,5.61,6.21,1.46,3.77,2.01,7.82,2.14,11.84.81,9.21-3.99,18.54-11.82,23.4-5.81,3.66-13.15,4.96-19.8,3.15-6.86-1.65-12.87-6.38-16.22-12.57-2.28-4.1-3.22-8.86-3.13-13.53.04-20.71-.06-41.41.05-62.12-2.49-1.01-4.84-2.57-6.21-4.94-2.44-4.03-1.96-9.7,1.35-13.11,1.28-1.5,3.08-2.36,4.83-3.17-.02-5.34-.02-10.68,0-16.02ZM6.19,30.09c.28,1.55.97,3.2,2.46,3.94,2.23,1.49,5.48.28,6.47-2.14,1.52-2.89-1.15-6.62-4.31-6.47-2.48.05-4.41,2.29-4.62,4.66Z"/>
        <path d="M168.99,31.6c5.36-3.57,11.85-5.45,18.29-5.1,2.27.18,4.62.16,6.78.97,1.07.4,1.91,1.46,1.82,2.64.14,5.2-.92,10.36-2.45,15.3-1.73,5.26-4.5,10.28-8.63,14.04,5.9,5.43,9.01,13.25,10.35,21.01.65,2.87.82,5.84.7,8.77-.16,1.9-2.33,2.57-3.92,2.78-2.7.25-5.43.67-8.14.33-6.13-.28-12.03-2.78-16.88-6.48-6.57-5.05-11.3-12.1-14.75-19.55-10.04,11.83-24.35,20.05-39.73,22.37-8.45,1.49-17.2,1.09-25.53-.88-15.77-3.56-29.97-13.34-39.15-26.62-.78-1.17-.62-2.76.23-3.85,7.62-10.79,18.49-19.31,30.91-23.88,13.54-5.08,28.76-5.53,42.56-1.19,11.91,3.6,22.64,10.83,30.71,20.27,3.83-8.16,9.19-15.92,16.81-20.95ZM173.37,36.36c-7.82,4.79-12.9,12.89-16.38,21.16-.75,1.58-.35,3.38.42,4.87,3.65,8.37,9.09,16.53,17.33,20.95,4.5,2.36,9.73,3.26,14.76,2.57-.19-2.21-.69-4.38-1.07-6.56-1.54-6.63-4.6-13.47-10.6-17.18-1.95-1.02-2.1-4.1-.22-5.26,1.7-1.14,3.31-2.42,4.63-3.99,4.67-5.56,6.44-12.9,7.25-19.96-5.56-.57-11.35.39-16.14,3.4ZM84.53,38.3c-11.97,3.6-22.66,11.16-30.17,21.13,9.95,13.28,25.66,22.15,42.23,23.48,20.13,2.08,40.89-7.24,52.92-23.48-7.98-10.69-19.7-18.5-32.61-21.84-10.57-2.75-21.92-2.55-32.37.7Z"/>
        <path d="M65.73,56.61c2.04-1.13,5.41.25,5.11,2.86.27,2.72-3.35,4.15-5.36,2.66-2.05-1.15-1.89-4.56.25-5.52Z"/>
      </g>
    </g>
  </g>
</svg>