<?xml version="1.0" encoding="UTF-8"?>
<svg id="Capa_2" data-name="Capa 2" xmlns="http://www.w3.org/2000/svg" viewBox="0 0 848.04 818.79">
  <defs>
    <style>
      .cls-1 {
        fill: #fff;
      }

      .cls-2 {
        fill: #84b736;
      }
    </style>
  </defs>
  <g id="Layer_1" data-name="Layer 1">
    <g>
      <rect class="cls-1" width="848.04" height="818.79" rx="73.73" ry="73.73"/>
      <g>
        <path class="cls-2" d="M655.06,72.66c21.19-2.78,43.27,1.97,61.44,13.21,27.43,16.58,45.2,47.9,45.01,80,.22,19.49-5.9,38.99-17.18,54.89-11.86,16.98-29.5,29.84-49.29,35.91-16.67,5.2-34.79,5.63-51.68,1.23-20.65-5.26-39.34-17.84-52.03-34.95-9.44-12.55-15.64-27.52-17.83-43.07-3.16-21.41,1.37-43.89,12.66-62.36,14.55-24.4,40.68-41.46,68.9-44.86ZM657.04,99.63c-17.91,2.63-34.66,12.8-45.02,27.68-8.62,11.98-13.04,26.88-12.46,41.61.54,16.14,7.2,31.96,18.25,43.71,10.14,10.81,23.92,18.14,38.57,20.44,17.03,2.78,35.09-1.3,49.19-11.26,12.07-8.22,21.14-20.64,25.66-34.5,4.46-13.49,4.36-28.36.03-41.87-5.49-16.68-17.59-31.07-33.27-39.04-12.5-6.46-27.03-8.91-40.95-6.77Z"/>
        <path d="M311.95,75.37c6.24-2.8,14.15,1.88,14.77,8.65.99,6.01-4.15,12.08-10.23,12.14-5.72.45-11.16-4.54-11.25-10.26-.36-4.51,2.63-8.81,6.71-10.53Z"/>
        <path d="M419.93,75.37c6.2-2.79,14.07,1.8,14.77,8.53,1.06,6-4.01,12.12-10.08,12.26-5.76.51-11.27-4.47-11.38-10.23-.38-4.51,2.61-8.82,6.69-10.56Z"/>
        <path d="M447,75.35c6.51-2.91,14.71,2.38,14.79,9.48.54,6.18-5.23,11.91-11.4,11.32-6.43-.15-11.57-6.97-9.91-13.2.76-3.39,3.35-6.25,6.52-7.6Z"/>
        <path d="M473.99,75.35c6.19-2.75,14.03,1.86,14.71,8.56,1.06,6.03-4.06,12.16-10.16,12.25-6.11.51-11.82-5.18-11.3-11.29.07-4.16,2.99-7.92,6.75-9.52Z"/>
        <path d="M392.93,102.37c6.2-2.79,14.09,1.82,14.77,8.55,1.05,6.01-4.03,12.12-10.11,12.24-5.76.5-11.26-4.51-11.35-10.27-.36-4.49,2.63-8.79,6.69-10.52Z"/>
        <path d="M446.95,102.36c6.25-2.79,14.16,1.9,14.77,8.68.97,6-4.15,12.05-10.22,12.12-5.73.45-11.19-4.55-11.26-10.29-.35-4.5,2.64-8.78,6.71-10.51Z"/>
        <path class="cls-2" d="M169.09,72.66c20.44-2.67,41.73,1.63,59.51,12.08,19.95,11.55,35.39,30.66,42.37,52.64,6.16,18.88,6.09,39.72-.16,58.57-7.21,22.21-23.07,41.44-43.45,52.82-17.97,10.22-39.4,14.17-59.84,11.17-24.97-3.47-48.23-17.53-62.93-38-11.84-16.13-18.24-36.13-18.06-56.13.06-20.55,7.11-40.99,19.74-57.2,15.07-19.68,38.21-32.95,62.82-35.95ZM171.04,99.63c-17.71,2.61-34.29,12.57-44.67,27.19-16.78,22.4-17.09,55.38-.75,78.1,9.22,13.56,23.73,23.31,39.65,27.14,13.4,3.23,27.81,2.25,40.61-2.89,17.17-6.68,31.25-20.76,37.93-37.93,6.12-15.28,6.33-32.83.54-48.24-5.63-15.47-17.18-28.64-31.75-36.29-12.63-6.68-27.42-9.25-41.56-7.08Z"/>
        <path class="cls-2" d="M164.09,129.59c10.59-4.9,23.28-4.92,33.86,0,10.12,4.63,18.12,13.57,21.56,24.15,3.85,11.46,2.15,24.6-4.5,34.69-7.14,11.23-20.19,18.45-33.5,18.46-15.66.43-30.87-9.32-37.29-23.56-4.92-10.59-4.91-23.27,0-33.86,4.03-8.71,11.18-15.84,19.87-19.88Z"/>
        <path class="cls-2" d="M650.1,129.59c10.58-4.9,23.27-4.92,33.86,0,10.11,4.63,18.09,13.56,21.54,24.13,3.79,11.25,2.24,24.14-4.14,34.16-6.36,10.37-17.69,17.45-29.76,18.79-16.96,2.16-34.42-7.77-41.38-23.34-4.92-10.59-4.91-23.28,0-33.86,4.02-8.71,11.18-15.84,19.88-19.88Z"/>
        <path d="M311.94,129.37c6.19-2.78,14.05,1.8,14.76,8.51,1.17,6.46-4.79,12.92-11.32,12.27-6.06-.16-11.1-6.27-10.06-12.26.45-3.77,3.19-7.03,6.62-8.52Z"/>
        <path d="M338.97,129.36c6.51-2.93,14.72,2.34,14.82,9.44.6,6.5-5.8,12.4-12.22,11.28-6.76-.67-11.39-8.6-8.55-14.81,1.13-2.62,3.32-4.8,5.95-5.91Z"/>
        <path d="M365.95,129.37c6.17-2.78,14.01,1.78,14.74,8.47,1.1,6.02-3.98,12.18-10.07,12.32-5.75.51-11.27-4.48-11.38-10.23-.37-4.52,2.62-8.83,6.71-10.56Z"/>
        <path d="M446.91,129.38c6.2-2.81,14.09,1.79,14.79,8.51,1.08,6.08-4.12,12.26-10.28,12.27-5.7.41-11.09-4.56-11.18-10.26-.36-4.49,2.62-8.78,6.67-10.52Z"/>
        <path d="M338.95,156.37c6.25-2.81,14.17,1.9,14.77,8.68.97,6-4.16,12.05-10.22,12.11-5.71.44-11.13-4.5-11.26-10.2-.38-4.53,2.61-8.87,6.71-10.59Z"/>
        <path d="M365.93,156.38c6.22-2.82,14.14,1.84,14.78,8.61,1.01,6-4.09,12.07-10.15,12.17-5.73.47-11.2-4.49-11.32-10.22-.38-4.51,2.61-8.83,6.69-10.56Z"/>
        <path d="M446.9,156.39c6.19-2.82,14.1,1.77,14.8,8.5,1.06,6.01-4.01,12.13-10.09,12.27-5.76.51-11.27-4.49-11.37-10.26-.36-4.48,2.6-8.77,6.66-10.51Z"/>
        <path d="M474.02,156.34c6.16-2.71,13.93,1.84,14.67,8.49,1.1,6.01-3.96,12.17-10.04,12.32-5.78.53-11.32-4.48-11.41-10.26-.36-4.52,2.67-8.85,6.78-10.55Z"/>
        <path d="M500.97,156.36c6.21-2.77,14.07,1.86,14.74,8.58,1.12,6.44-4.8,12.84-11.31,12.21-6.07-.15-11.12-6.25-10.08-12.25.44-3.78,3.2-7.06,6.65-8.54Z"/>
        <path d="M338.97,183.36c6.17-2.76,14,1.8,14.72,8.49,1.1,6.01-3.97,12.16-10.06,12.3-5.77.53-11.3-4.48-11.39-10.25-.36-4.51,2.64-8.82,6.73-10.54Z"/>
        <path d="M365.97,183.36c6.2-2.77,14.05,1.84,14.73,8.56,1.05,6.01-4.03,12.12-10.11,12.24-5.74.49-11.22-4.47-11.35-10.21-.39-4.53,2.62-8.87,6.73-10.59Z"/>
        <path d="M420,183.35c6.19-2.74,14.01,1.85,14.7,8.55,1.06,6.03-4.06,12.17-10.16,12.26-5.74.47-11.2-4.52-11.3-10.25-.37-4.52,2.65-8.85,6.76-10.56Z"/>
        <path d="M473.91,183.38c6.21-2.82,14.13,1.81,14.8,8.56,1.03,6-4.04,12.09-10.11,12.22-5.78.5-11.3-4.53-11.36-10.32-.34-4.47,2.63-8.73,6.67-10.46Z"/>
        <path d="M527.95,183.37c6.52-2.96,14.76,2.34,14.84,9.46.58,6.48-5.79,12.36-12.2,11.25-6.76-.66-11.4-8.56-8.59-14.78,1.13-2.63,3.32-4.8,5.95-5.93Z"/>
        <path d="M311.97,210.36c6.21-2.77,14.07,1.86,14.74,8.58,1.02,6-4.05,12.1-10.11,12.22-5.75.5-11.24-4.48-11.36-10.22-.38-4.53,2.63-8.86,6.73-10.58Z"/>
        <path d="M419.91,210.38c6.21-2.82,14.12,1.81,14.79,8.55,1.05,6.03-4.07,12.14-10.17,12.23-5.73.46-11.19-4.51-11.29-10.24-.37-4.5,2.61-8.8,6.67-10.54Z"/>
        <path d="M446.95,210.37c6.23-2.8,14.15,1.88,14.77,8.65.97,5.96-4.07,11.99-10.09,12.14-5.76.51-11.27-4.46-11.39-10.22-.38-4.52,2.62-8.84,6.71-10.57Z"/>
        <path d="M473.92,210.38c6.21-2.81,14.11,1.81,14.78,8.55,1.14,6.45-4.8,12.85-11.31,12.22-6.06-.15-11.1-6.25-10.08-12.25.45-3.76,3.19-7.03,6.61-8.52Z"/>
        <path d="M527.96,210.36c6.22-2.78,14.11,1.87,14.75,8.62,1.01,5.99-4.06,12.04-10.1,12.18-5.74.5-11.23-4.45-11.37-10.18-.4-4.54,2.61-8.89,6.72-10.62Z"/>
        <path d="M311.95,237.37c6.22-2.8,14.11,1.86,14.76,8.6,1.01,6-4.07,12.08-10.13,12.19-5.76.49-11.25-4.51-11.34-10.26-.36-4.51,2.63-8.81,6.71-10.53Z"/>
        <path d="M365.94,237.37c6.2-2.79,14.07,1.82,14.76,8.54,1.05,5.99-3.99,12.09-10.05,12.24-5.76.54-11.29-4.45-11.41-10.21-.38-4.52,2.61-8.84,6.7-10.57Z"/>
        <path d="M419.98,237.35c6.2-2.75,14.05,1.86,14.72,8.58,1.12,6.38-4.67,12.74-11.12,12.23-6.55-.02-11.83-6.99-10.07-13.32.79-3.34,3.34-6.15,6.47-7.49Z"/>
        <path d="M473.97,237.36c6.2-2.77,14.05,1.84,14.73,8.56,1.06,6.04-4.09,12.18-10.2,12.24-5.7.45-11.13-4.5-11.26-10.2-.39-4.53,2.62-8.88,6.73-10.6Z"/>
        <path d="M527.98,237.35c6.22-2.76,14.09,1.89,14.73,8.64,1.08,6.37-4.74,12.71-11.18,12.17-5.74-.08-10.75-5.53-10.29-11.26.05-4.17,2.98-7.95,6.74-9.55Z"/>
        <path d="M365.95,264.37c6.18-2.78,14.03,1.8,14.75,8.5,1.08,6.04-4.05,12.21-10.16,12.29-5.73.47-11.18-4.5-11.3-10.22-.38-4.52,2.62-8.84,6.71-10.57Z"/>
        <path d="M392.99,264.35c6.18-2.74,13.99,1.83,14.71,8.52,1.09,6.06-4.08,12.24-10.22,12.29-5.71.44-11.14-4.53-11.24-10.25-.37-4.52,2.65-8.85,6.75-10.56Z"/>
        <path d="M473.94,264.37c6.21-2.8,14.11,1.84,14.77,8.58,1.03,6.05-4.13,12.17-10.25,12.21-5.72.43-11.14-4.57-11.22-10.29-.35-4.49,2.63-8.77,6.7-10.5Z"/>
        <path d="M95.92,291.38c6.16-2.79,14.01,1.74,14.77,8.43,1.12,6.05-4.01,12.26-10.14,12.35-5.74.48-11.21-4.52-11.31-10.26-.36-4.49,2.62-8.78,6.68-10.52Z"/>
        <path d="M149.88,291.4c6.19-2.84,14.11,1.74,14.82,8.47,1.07,6.01-3.99,12.14-10.07,12.28-5.76.53-11.3-4.48-11.39-10.25-.36-4.48,2.6-8.76,6.64-10.5Z"/>
        <path d="M257.92,291.38c6.22-2.82,14.14,1.83,14.79,8.59,1.02,6.02-4.11,12.12-10.2,12.19-5.72.45-11.16-4.52-11.27-10.24-.37-4.5,2.61-8.81,6.68-10.54Z"/>
        <path d="M284.98,291.36c6.19-2.76,14.03,1.84,14.72,8.55,1.05,5.99-3.99,12.09-10.05,12.24-5.76.54-11.29-4.44-11.41-10.21-.38-4.53,2.63-8.86,6.74-10.58Z"/>
        <path d="M338.9,291.39c6.24-2.85,14.18,1.83,14.81,8.61.99,5.99-4.08,12.04-10.13,12.16-6.13.54-11.87-5.17-11.34-11.31.07-4.12,2.95-7.85,6.66-9.46Z"/>
        <path d="M392.97,291.36c6.23-2.78,14.12,1.89,14.74,8.65,1,6.03-4.16,12.12-10.26,12.15-5.72.42-11.13-4.57-11.21-10.28-.36-4.51,2.65-8.81,6.73-10.52Z"/>
        <path d="M501,291.35c6.16-2.73,13.96,1.82,14.69,8.48,1.11,6.05-4.02,12.24-10.15,12.33-5.72.47-11.17-4.49-11.3-10.2-.39-4.55,2.64-8.9,6.76-10.61Z"/>
        <path d="M527.96,291.36c6.18-2.77,14.04,1.82,14.74,8.52,1.06,6-3.98,12.11-10.04,12.27-5.78.55-11.33-4.47-11.42-10.25-.37-4.51,2.63-8.82,6.72-10.54Z"/>
        <path d="M608.94,291.37c6.21-2.8,14.11,1.84,14.77,8.58,1.02,5.99-4.04,12.07-10.09,12.21-5.77.51-11.28-4.49-11.38-10.26-.37-4.5,2.62-8.8,6.7-10.53Z"/>
        <path d="M689.98,291.36c7.28-3.33,16.25,3.72,14.71,11.59-.77,8.19-12.02,12.35-17.84,6.46-6.06-4.85-4.06-15.42,3.13-18.05Z"/>
        <path d="M743.99,291.35c6.19-2.75,14.02,1.85,14.71,8.56,1.06,6.03-4.06,12.16-10.16,12.25-5.73.46-11.19-4.5-11.3-10.23-.38-4.53,2.64-8.86,6.75-10.58Z"/>
        <path d="M122.9,318.39c6.21-2.83,14.13,1.8,14.8,8.55,1.04,6.01-4.05,12.11-10.13,12.22-5.77.49-11.27-4.54-11.33-10.31-.34-4.47,2.63-8.73,6.66-10.46Z"/>
        <path d="M149.96,318.36c6.2-2.77,14.07,1.84,14.74,8.57,1.12,6.37-4.66,12.73-11.1,12.23-5.76-.04-10.81-5.49-10.36-11.24.05-4.17,2.96-7.95,6.72-9.56Z"/>
        <path d="M176.87,318.4c6.49-3,14.76,2.22,14.91,9.33.65,6.5-5.72,12.45-12.16,11.35-6.14-.61-10.74-7.23-9.12-13.21.77-3.31,3.29-6.11,6.37-7.47Z"/>
        <path d="M203.91,318.38c6.24-2.83,14.19,1.85,14.81,8.64,1.07,6.42-4.85,12.76-11.33,12.13-6.46-.14-11.6-7.02-9.89-13.28.77-3.33,3.31-6.13,6.41-7.49Z"/>
        <path d="M284.93,318.37c6.21-2.8,14.1,1.82,14.77,8.56,1.05,6.04-4.1,12.18-10.22,12.23-6.1.48-11.76-5.21-11.24-11.3.07-4.14,2.97-7.88,6.69-9.49Z"/>
        <path d="M419.96,318.36c5.86-2.59,13.26,1.32,14.56,7.53,1.03,4.25-.73,9.61-4.94,11.39-3.97.04-8.11.57-11.97-.33-6.86-4.4-5.19-15.87,2.35-18.59Z"/>
        <path d="M446.98,318.35c6.17-2.74,13.98,1.82,14.71,8.49.87,4.85-2.48,11.6-8.19,10.57-3.69-.38-8.56,1.31-11-2.4-4.52-5.31-1.95-14.24,4.48-16.66Z"/>
        <path d="M500.98,318.35c6.19-2.75,14.02,1.84,14.72,8.54,1.08,6.05-4.08,12.22-10.21,12.27-5.72.44-11.15-4.54-11.25-10.26-.37-4.51,2.65-8.83,6.74-10.55Z"/>
        <path d="M527.98,318.35c6.18-2.74,14,1.83,14.71,8.52,1.09,6.04-4.04,12.21-10.16,12.29-6.12.5-11.82-5.2-11.29-11.32.08-4.15,3-7.89,6.74-9.49Z"/>
        <path d="M581.94,318.37c6.23-2.81,14.13,1.86,14.77,8.62,1,5.98-4.05,12.03-10.09,12.17-5.76.51-11.27-4.47-11.38-10.23-.38-4.51,2.61-8.83,6.7-10.56Z"/>
        <path d="M608.96,318.36c6.22-2.79,14.12,1.88,14.75,8.64,1,6.02-4.13,12.1-10.22,12.16-6.08.48-11.74-5.18-11.25-11.26.05-4.16,2.96-7.93,6.72-9.54Z"/>
        <path d="M662.99,318.35c6.17-2.74,13.99,1.83,14.7,8.51,1.1,6.06-4.06,12.24-10.2,12.3-5.72.44-11.16-4.54-11.25-10.26-.36-4.52,2.65-8.84,6.75-10.55Z"/>
        <path d="M716.94,318.37c6.2-2.79,14.08,1.82,14.76,8.55,1.05,6.04-4.09,12.18-10.21,12.24-5.72.44-11.16-4.54-11.25-10.26-.36-4.5,2.62-8.8,6.7-10.53Z"/>
        <path d="M743.96,318.36c6.21-2.78,14.09,1.86,14.75,8.6,1.02,6-4.07,12.09-10.14,12.2-5.76.49-11.26-4.53-11.33-10.3-.35-4.49,2.65-8.78,6.72-10.5Z"/>
        <path d="M95.92,345.38c6.23-2.83,14.16,1.84,14.79,8.62,1.1,6.42-4.83,12.77-11.31,12.15-6.44-.14-11.58-6.97-9.92-13.21.76-3.36,3.31-6.2,6.44-7.56Z"/>
        <path d="M177.75,345.07c6.41-2.27,13.92,2.95,14.04,9.73.56,6.17-5.2,11.92-11.37,11.36-5.71-.15-10.66-5.6-10.18-11.3.08-4.43,3.38-8.42,7.51-9.79Z"/>
        <path d="M257.93,345.37c7.25-3.34,16.2,3.6,14.78,11.43-.65,8.26-11.96,12.54-17.84,6.63-6.06-4.83-4.11-15.4,3.06-18.06Z"/>
        <path d="M284.93,345.37c6.2-2.79,14.07,1.8,14.77,8.52,1.07,6.02-4.04,12.16-10.13,12.27-5.76.48-11.25-4.52-11.33-10.28-.35-4.49,2.63-8.78,6.69-10.51Z"/>
        <path d="M311.93,345.37c6.19-2.79,14.06,1.8,14.77,8.5,1.16,6.39-4.64,12.79-11.11,12.29-5.78-.04-10.83-5.54-10.35-11.31.08-4.14,2.97-7.87,6.69-9.48Z"/>
        <path d="M500.99,345.35c6.19-2.74,14.01,1.84,14.71,8.53,1.06,5.99-3.97,12.1-10.02,12.27-5.2.5-10.41-3.44-10.73-8.77-1.96-4.9,1.52-10.17,6.04-12.03Z"/>
        <path d="M527.95,345.37c6.2-2.79,14.08,1.83,14.75,8.56,1.04,5.98-4,12.07-10.05,12.22-5.78.53-11.33-4.48-11.41-10.27-.35-4.5,2.64-8.79,6.71-10.51Z"/>
        <path d="M662.93,345.37c6.51-2.95,14.74,2.3,14.85,9.41.58,6.18-5.18,11.94-11.36,11.38-6.44-.14-11.59-6.96-9.94-13.2.75-3.37,3.31-6.22,6.45-7.59Z"/>
        <path d="M689.95,345.37c6.22-2.79,14.1,1.85,14.76,8.59,1.02,6-4.06,12.08-10.12,12.2-5.75.5-11.25-4.5-11.35-10.25-.37-4.51,2.63-8.82,6.71-10.54Z"/>
        <path d="M743.97,345.36c6.23-2.79,14.13,1.9,14.75,8.67,1.06,6.39-4.81,12.7-11.25,12.13-6.5-.1-11.7-7.01-9.97-13.3.78-3.34,3.34-6.15,6.47-7.5Z"/>
        <path d="M123,372.35c6.21-2.75,14.05,1.88,14.71,8.6,1.02,5.99-4.03,12.06-10.08,12.21-5.75.51-11.26-4.45-11.39-10.2-.39-4.54,2.64-8.89,6.76-10.61Z"/>
        <path d="M203.97,372.36c6.2-2.77,14.05,1.84,14.73,8.56,1.05,6.02-4.06,12.14-10.14,12.24-5.74.48-11.22-4.51-11.32-10.25-.37-4.51,2.64-8.83,6.73-10.55Z"/>
        <path d="M284.95,372.37c6.23-2.8,14.14,1.87,14.76,8.63,1.08,6.39-4.78,12.73-11.23,12.16-6.11-.1-11.21-6.26-10.16-12.3.46-3.75,3.2-7.01,6.63-8.49Z"/>
        <path d="M339,372.35c3.66-1.46,8.18-.81,11.09,1.93,3.24,2.52,1.51,7.09,1.95,10.6,1,5.27-4.88,8.6-9.46,8.28-6.53-.03-11.8-6.94-10.09-13.26.78-3.37,3.36-6.21,6.51-7.55Z"/>
        <path d="M554.93,372.37c6.19-2.79,14.06,1.8,14.77,8.51,1.15,6.42-4.7,12.83-11.19,12.28-6.53-.07-11.77-7.04-10-13.35.8-3.31,3.33-6.09,6.42-7.44Z"/>
        <path d="M581.9,372.39c6.22-2.84,14.16,1.81,14.81,8.59,1.09,6.36-4.71,12.69-11.13,12.18-6.51-.03-11.77-6.9-10.1-13.19.74-3.37,3.29-6.21,6.42-7.58Z"/>
        <path d="M662.93,372.38c6.22-2.82,14.14,1.84,14.78,8.61,1.09,6.38-4.74,12.71-11.18,12.17-6.49-.06-11.72-6.93-10.05-13.21.75-3.37,3.31-6.21,6.45-7.57Z"/>
        <path d="M95.92,399.38c6.22-2.82,14.12,1.82,14.79,8.57,1.03,5.98-4.03,12.06-10.07,12.21-5.77.52-11.3-4.48-11.4-10.25-.36-4.5,2.62-8.8,6.68-10.53Z"/>
        <path d="M122.98,399.35c6.21-2.76,14.08,1.88,14.73,8.61,1.1,6.38-4.71,12.72-11.15,12.2-5.76-.06-10.79-5.54-10.32-11.29.07-4.16,2.99-7.92,6.74-9.52Z"/>
        <path d="M230.97,399.36c6.22-2.78,14.1,1.87,14.74,8.62,1.01,5.99-4.07,12.06-10.12,12.18-5.73.49-11.2-4.46-11.35-10.18-.4-4.54,2.61-8.89,6.73-10.62Z"/>
        <path d="M257.96,399.36c6.21-2.78,14.08,1.85,14.75,8.58,1.04,6.03-4.1,12.15-10.2,12.22-6.11.5-11.8-5.2-11.27-11.32.08-4.14,2.99-7.88,6.72-9.48Z"/>
        <path d="M284.93,399.37c7.28-3.37,16.28,3.68,14.77,11.54-.75,8.2-11.97,12.39-17.82,6.52-6.08-4.82-4.12-15.39,3.05-18.06Z"/>
        <path d="M311.99,399.35c6.51-2.91,14.71,2.37,14.8,9.47.59,6.53-5.88,12.44-12.34,11.24-6.64-.74-11.18-8.48-8.5-14.64,1.12-2.7,3.35-4.94,6.04-6.07Z"/>
        <path d="M500.96,399.36c6.21-2.78,14.09,1.86,14.75,8.59.96,5.7-3.56,11.53-9.27,12.13-3.98.55-8.71-1.27-10.31-5.14-.2-3.69-.21-7.41.01-11.09.7-2.18,2.83-3.58,4.82-4.49Z"/>
        <path d="M582.02,399.34c7.26-3.27,16.17,3.72,14.68,11.55-.72,8.18-11.9,12.41-17.77,6.59-6.15-4.83-4.18-15.53,3.09-18.14Z"/>
        <path d="M608.96,399.36c6.2-2.78,14.07,1.85,14.74,8.57,1.13,6.42-4.76,12.81-11.24,12.23-6.09-.12-11.17-6.24-10.15-12.26.45-3.77,3.2-7.06,6.65-8.54Z"/>
        <path d="M743.97,399.36c7.22-3.31,16.13,3.6,14.74,11.41-.62,8.23-11.86,12.56-17.77,6.72-6.15-4.81-4.2-15.47,3.03-18.13Z"/>
        <path d="M122.95,426.37c6.22-2.8,14.13,1.86,14.76,8.62,1.02,6.05-4.16,12.15-10.28,12.17-5.69.41-11.08-4.54-11.19-10.24-.37-4.51,2.62-8.83,6.71-10.55Z"/>
        <path d="M149.98,426.35c6.22-2.77,14.1,1.9,14.73,8.64,1.01,6.04-4.15,12.13-10.25,12.17-6.07.46-11.71-5.18-11.22-11.25.05-4.18,2.98-7.95,6.74-9.56Z"/>
        <path d="M176.98,426.35c6.25-2.78,14.15,1.93,14.74,8.7,1.04,6.35-4.75,12.62-11.15,12.11-5.77-.06-10.81-5.55-10.33-11.3.07-4.16,2.99-7.91,6.74-9.51Z"/>
        <path d="M203.99,426.35c6.21-2.75,14.06,1.88,14.72,8.6,1.11,6.38-4.71,12.73-11.15,12.21-6.14-.05-11.3-6.23-10.24-12.29.46-3.78,3.22-7.05,6.67-8.52Z"/>
        <path d="M311.88,426.4c6.22-2.85,14.16,1.78,14.83,8.54,1.02,5.99-4.03,12.07-10.07,12.21-5.77.53-11.29-4.46-11.4-10.23-.37-4.49,2.59-8.78,6.64-10.52Z"/>
        <path d="M500.92,426.38c6.22-2.82,14.13,1.83,14.79,8.58,1.02,5.99-4.06,12.07-10.11,12.2-3.74.21-8.06-1.63-9.47-5.26-.21-3.67-.21-7.37.01-11.04.68-2.17,2.81-3.57,4.78-4.48Z"/>
        <path d="M527.93,426.37c6.21-2.8,14.11,1.83,14.78,8.58,1.02,5.98-4.03,12.06-10.08,12.2-5.79.53-11.33-4.51-11.39-10.31-.34-4.48,2.64-8.75,6.69-10.47Z"/>
        <path d="M581.98,426.36c6.22-2.78,14.1,1.88,14.73,8.63,1,5.99-4.07,12.05-10.12,12.17-5.76.5-11.26-4.51-11.35-10.27-.36-4.51,2.65-8.82,6.74-10.53Z"/>
        <path d="M608.87,426.4c6.19-2.84,14.11,1.73,14.83,8.47,1.08,6.03-4.04,12.19-10.15,12.29-6.11.52-11.82-5.17-11.31-11.28.06-4.12,2.93-7.85,6.63-9.48Z"/>
        <path d="M716.89,426.39c7.26-3.4,16.28,3.6,14.81,11.47-.69,8.2-11.92,12.45-17.79,6.6-6.09-4.8-4.18-15.37,2.98-18.07Z"/>
        <path d="M743.96,426.36c6.18-2.77,14.03,1.82,14.74,8.52,1.07,6.04-4.06,12.2-10.17,12.28-5.75.46-11.22-4.55-11.29-10.3-.35-4.49,2.65-8.78,6.72-10.5Z"/>
        <path d="M95.94,453.37c6.51-2.95,14.74,2.31,14.85,9.43.56,6.17-5.2,11.92-11.36,11.36-6.48-.13-11.64-7.02-9.93-13.28.78-3.34,3.32-6.16,6.44-7.51Z"/>
        <path d="M122.99,453.35c6.54-2.92,14.75,2.4,14.8,9.53.55,6.44-5.77,12.28-12.16,11.2-6.13-.6-10.74-7.21-9.14-13.19.78-3.36,3.36-6.2,6.5-7.54Z"/>
        <path d="M149.9,453.39c6.25-2.85,14.22,1.86,14.82,8.67.95,5.94-4.06,11.93-10.05,12.09-5.79.54-11.35-4.48-11.43-10.28-.35-4.48,2.62-8.75,6.66-10.48Z"/>
        <path d="M176.99,453.35c6.2-2.74,14.02,1.86,14.71,8.55,1.06,6.05-4.09,12.2-10.21,12.26-6.08.48-11.74-5.17-11.25-11.24.04-4.19,2.98-7.97,6.75-9.57Z"/>
        <path d="M203.93,453.38c6.21-2.81,14.1,1.81,14.77,8.55,1.04,6.03-4.07,12.14-10.16,12.23-6.11.51-11.81-5.18-11.3-11.29.07-4.14,2.96-7.89,6.69-9.49Z"/>
        <path d="M230.92,453.38c7.28-3.38,16.29,3.65,14.78,11.53-.74,8.2-11.97,12.39-17.83,6.52-6.06-4.83-4.11-15.38,3.05-18.05Z"/>
        <path d="M257.98,453.35c6.22-2.76,14.08,1.88,14.73,8.61,1.02,6.01-4.08,12.1-10.15,12.2-6.11.52-11.82-5.15-11.32-11.26.05-4.17,2.98-7.95,6.74-9.55Z"/>
        <path d="M312.01,453.34c6.19-2.73,14.01,1.88,14.69,8.58,1.14,6.41-4.72,12.79-11.19,12.24-5.74-.09-10.74-5.55-10.27-11.28.06-4.17,3-7.95,6.77-9.54Z"/>
        <path d="M338.99,453.35c3.67-1.47,8.21-.81,11.12,1.95,2.81,2.29,2.87,6.29,3.51,9.57-.45,5.7-6.41,10.14-12.01,9.21-6.14-.62-10.74-7.25-9.11-13.23.79-3.35,3.35-6.16,6.49-7.5Z"/>
        <path d="M500.96,453.36c6.21-2.78,14.08,1.85,14.74,8.58,1.03,5.97-3.99,12.03-10.02,12.21-5.12.48-10.08-3.37-11.2-8.32.03-4.79,1.33-10.7,6.48-12.47Z"/>
        <path d="M554.97,453.36c6.21-2.78,14.09,1.87,14.74,8.61,1.01,5.99-4.05,12.05-10.1,12.19-5.76.5-11.27-4.49-11.37-10.25-.37-4.52,2.64-8.83,6.73-10.55Z"/>
        <path d="M581.97,453.36c6.17-2.75,13.98,1.79,14.72,8.47,1.11,6.02-3.96,12.18-10.05,12.32-5.78.53-11.32-4.49-11.4-10.27-.36-4.51,2.65-8.81,6.73-10.52Z"/>
        <path d="M662.93,453.38c7.23-3.36,16.22,3.59,14.78,11.43-.66,8.24-11.92,12.51-17.81,6.65-6.09-4.82-4.16-15.41,3.03-18.08Z"/>
        <path d="M689.9,453.39c6.19-2.82,14.1,1.77,14.8,8.5,1.15,6.4-4.69,12.81-11.16,12.27-5.76-.08-10.79-5.56-10.3-11.31.07-4.13,2.95-7.85,6.66-9.46Z"/>
        <path d="M743.89,453.39c6.23-2.85,14.18,1.82,14.82,8.6,1.08,6.39-4.76,12.72-11.21,12.17-6.11-.09-11.22-6.23-10.19-12.26.45-3.76,3.17-7.01,6.58-8.51Z"/>
        <path d="M149.98,480.35c6.22-2.76,14.08,1.88,14.73,8.61,1.11,6.42-4.79,12.79-11.27,12.2-6.44-.12-11.61-6.94-9.96-13.2.75-3.39,3.34-6.25,6.5-7.61Z"/>
        <path d="M203.98,480.35c6.21-2.75,14.05,1.86,14.72,8.58,1.04,6-4.03,12.1-10.09,12.23-6.14.55-11.89-5.16-11.37-11.3.07-4.16,2.99-7.92,6.74-9.51Z"/>
        <path d="M311.93,480.37c6.21-2.8,14.1,1.83,14.77,8.56,1.05,6.04-4.1,12.17-10.21,12.23-6.09.48-11.75-5.18-11.25-11.27.06-4.15,2.95-7.91,6.69-9.52Z"/>
        <path d="M365.92,480.38c3.08-1.49,6.4.08,9.44.88,6.22,2.81,7.26,12.26,2.26,16.74-4.22,4.61-12.41,4.07-16.07-.96-4.57-5.26-2.04-14.21,4.37-16.66Z"/>
        <path d="M475.86,480.34c7.28-2.9,14.77,5.45,12.66,12.55-1.5,7.93-12.7,11.2-18.11,5.1-6.1-5.3-2.94-17.07,5.45-17.65Z"/>
        <path d="M500.88,480.4c6.23-2.86,14.19,1.8,14.83,8.59,1,5.99-4.07,12.05-10.12,12.17-5.75.49-11.25-4.5-11.35-10.25-.37-4.48,2.6-8.77,6.64-10.51Z"/>
        <path d="M554.93,480.37c6.21-2.8,14.1,1.82,14.77,8.56,1.13,6.39-4.69,12.76-11.15,12.23-6.14-.06-11.28-6.23-10.23-12.29.45-3.75,3.19-7.01,6.61-8.5Z"/>
        <path d="M581.92,480.38c7.29-3.38,16.32,3.67,14.77,11.56-.76,8.19-11.99,12.35-17.83,6.48-6.05-4.83-4.1-15.37,3.06-18.04Z"/>
        <path d="M608.99,480.35c6.2-2.75,14.04,1.86,14.71,8.57,1.13,6.39-4.69,12.77-11.15,12.24-5.74-.07-10.76-5.51-10.31-11.24.04-4.18,2.98-7.97,6.75-9.57Z"/>
        <path d="M635.99,480.35c6.19-2.75,14.03,1.86,14.71,8.57,1.05,6.02-4.06,12.15-10.16,12.24-6.12.52-11.83-5.19-11.3-11.32.08-4.15,3-7.9,6.75-9.49Z"/>
        <path d="M663,480.34c6.22-2.74,14.06,1.9,14.71,8.63,1.09,6.38-4.73,12.73-11.18,12.19-5.74-.08-10.76-5.54-10.29-11.28.06-4.17,2.99-7.95,6.76-9.54Z"/>
        <path d="M389.99,482.27c3.77-1.79,8.43-.61,12.54-.76,5.93,2.53,6.95,11.5,2.58,15.97-3.77,4.66-11.59,4.95-15.66.55-4.5-4.06-4.25-12.02.54-15.76Z"/>
        <path d="M416.94,482.32c3.75-1.88,8.43-.65,12.55-.82,5.99,2.5,7.01,11.59,2.56,16.04-3.8,4.65-11.65,4.87-15.68.41-4.41-4.07-4.13-11.91.57-15.63Z"/>
        <path d="M95.92,507.38c6.22-2.81,14.12,1.82,14.79,8.56,1.03,6.01-4.06,12.11-10.13,12.22-5.75.49-11.24-4.5-11.34-10.25-.36-4.5,2.62-8.8,6.68-10.53Z"/>
        <path d="M122.9,507.39c6.24-2.84,14.18,1.83,14.81,8.6,1,6-4.08,12.06-10.13,12.17-5.74.48-11.22-4.48-11.34-10.22-.38-4.5,2.6-8.81,6.66-10.55Z"/>
        <path d="M203.92,507.38c6.22-2.82,14.14,1.83,14.79,8.59,1.02,5.99-4.06,12.06-10.12,12.19-5.74.5-11.24-4.48-11.35-10.23-.37-4.51,2.61-8.82,6.68-10.55Z"/>
        <path d="M230.97,507.36c6.19-2.76,14.02,1.82,14.73,8.51,1.08,6.04-4.05,12.2-10.16,12.29-5.74.47-11.2-4.51-11.3-10.25-.37-4.51,2.64-8.84,6.73-10.55Z"/>
        <path d="M257.99,507.35c6.24-2.77,14.11,1.92,14.73,8.68.99,6.03-4.19,12.12-10.3,12.13-5.7.4-11.09-4.57-11.18-10.26-.36-4.53,2.65-8.84,6.75-10.55Z"/>
        <path d="M284.96,507.36c6.22-2.79,14.12,1.88,14.75,8.63,1,5.98-4.05,12.02-10.08,12.16-5.76.53-11.27-4.46-11.39-10.21-.38-4.52,2.62-8.85,6.72-10.58Z"/>
        <path d="M311.95,507.37c6.24-2.81,14.16,1.89,14.77,8.66.97,5.98-4.1,12.01-10.14,12.13-5.77.49-11.28-4.54-11.34-10.31-.34-4.49,2.65-8.77,6.71-10.48Z"/>
        <path d="M446.91,507.38c6.19-2.81,14.07,1.77,14.79,8.49,1.07,6.01-3.99,12.14-10.07,12.28-5.78.53-11.32-4.5-11.39-10.28-.35-4.48,2.62-8.75,6.67-10.49Z"/>
        <path d="M473.85,507.41c6.21-2.87,14.17,1.74,14.85,8.51,1.04,5.98-4,12.08-10.05,12.23-5.76.53-11.28-4.44-11.41-10.19-.39-4.49,2.56-8.79,6.61-10.55Z"/>
        <path d="M500.99,507.35c6.17-2.74,13.98,1.82,14.7,8.49,1.19,6.4-4.63,12.82-11.1,12.32-5.76-.04-10.81-5.51-10.35-11.26.05-4.17,2.98-7.96,6.75-9.55Z"/>
        <path d="M527.95,507.37c6.57-2.98,14.88,2.43,14.84,9.62.45,6.12-5.3,11.75-11.42,11.16-6.46-.16-11.58-7.04-9.87-13.28.78-3.35,3.33-6.16,6.45-7.5Z"/>
        <path d="M554.93,507.37c6.22-2.8,14.12,1.84,14.78,8.59,1.01,5.99-4.05,12.07-10.11,12.2-5.75.5-11.25-4.49-11.36-10.24-.37-4.51,2.62-8.81,6.69-10.55Z"/>
        <path d="M581.95,507.36c6.53-2.95,14.78,2.36,14.84,9.5.53,6.16-5.24,11.87-11.39,11.29-6.49-.14-11.63-7.06-9.89-13.32.79-3.33,3.33-6.12,6.44-7.47Z"/>
        <path d="M608.9,507.39c7.25-3.38,16.25,3.57,14.81,11.43-.67,8.22-11.9,12.5-17.79,6.65-6.1-4.8-4.2-15.39,2.98-18.08Z"/>
        <path d="M635.98,507.36c6.22-2.78,14.1,1.89,14.73,8.64,1.09,6.43-4.84,12.78-11.32,12.15-6.83-.14-12.03-7.77-9.64-14.19,1.02-2.94,3.37-5.39,6.23-6.6Z"/>
        <path d="M716.93,507.37c6.49-2.94,14.7,2.27,14.85,9.36.6,6.17-5.12,11.95-11.29,11.43-6.51-.09-11.72-7.01-9.99-13.3.78-3.33,3.32-6.14,6.43-7.49Z"/>
        <path d="M311.88,534.4c6.2-2.85,14.13,1.76,14.82,8.51,1.06,6.02-4.04,12.14-10.13,12.25-5.73.48-11.2-4.48-11.33-10.2-.38-4.5,2.58-8.81,6.64-10.56Z"/>
        <path d="M365.94,534.37c6.2-2.79,14.07,1.81,14.76,8.54,1.06,6.02-4.04,12.15-10.14,12.25-5.75.48-11.24-4.53-11.32-10.28-.36-4.5,2.63-8.79,6.7-10.51Z"/>
        <path d="M446.95,534.37c6.24-2.81,14.16,1.89,14.77,8.67,1.04,6.36-4.75,12.65-11.17,12.12-5.75-.07-10.77-5.53-10.31-11.28.06-4.15,2.97-7.91,6.71-9.51Z"/>
        <path d="M500.94,534.37c6.22-2.8,14.13,1.85,14.77,8.61,1,5.99-4.07,12.06-10.12,12.18-6.12.54-11.85-5.14-11.35-11.26.05-4.15,2.95-7.92,6.7-9.53Z"/>
        <path d="M528.01,534.34c6.16-2.72,13.95,1.83,14.68,8.49,1.19,6.41-4.63,12.84-11.1,12.33-5.77-.05-10.82-5.53-10.35-11.29.06-4.17,3-7.94,6.77-9.53Z"/>
        <path d="M635.92,534.38c6.21-2.81,14.12,1.82,14.79,8.56,1.04,6.06-4.14,12.19-10.27,12.22-5.71.41-11.11-4.57-11.2-10.27-.36-4.5,2.62-8.78,6.68-10.51Z"/>
        <path d="M744.72,534.09c6.1-2.17,13.31,2.41,13.98,8.83,1.05,6.01-4.03,12.12-10.11,12.24-5.76.49-11.26-4.51-11.35-10.27-.38-4.77,3.01-9.33,7.48-10.8Z"/>
        <path class="cls-2" d="M169,558.67c20.45-2.69,41.77,1.6,59.56,12.05,14.48,8.4,26.65,20.73,34.83,35.33,9.87,17.35,13.89,37.9,11.47,57.69-1.84,15.42-7.55,30.38-16.55,43.04-11.37,16.27-28.05,28.76-46.86,35.11-17.31,5.91-36.35,6.63-54.04,2.02-17.18-4.37-33.03-13.79-45.16-26.71-13.25-14.01-22.07-32.18-24.75-51.29-3.17-21.41,1.36-43.89,12.65-62.37,14.54-24.39,40.64-41.46,68.85-44.87ZM171.08,585.63c-17.93,2.62-34.7,12.79-45.06,27.69-8.61,11.95-13.03,26.83-12.46,41.54.52,16.17,7.19,32.01,18.26,43.78,10.12,10.8,23.89,18.12,38.52,20.42,17.03,2.8,35.1-1.28,49.21-11.24,12.08-8.22,21.15-20.63,25.67-34.49,4.79-14.56,4.41-30.78-1.15-45.07-5.97-15.86-18.21-29.2-33.46-36.55-12.17-5.95-26.14-8.13-39.53-6.08Z"/>
        <path d="M311.97,561.36c6.53-2.94,14.77,2.37,14.82,9.51.56,6.47-5.8,12.31-12.2,11.21-6.13-.63-10.71-7.25-9.09-13.22.79-3.35,3.34-6.16,6.47-7.5Z"/>
        <path d="M338.98,561.35c6.23-2.77,14.11,1.91,14.73,8.66,1.07,6.35-4.71,12.64-11.11,12.15-6.54-.01-11.82-6.94-10.11-13.25.77-3.37,3.34-6.21,6.49-7.56Z"/>
        <path d="M365.95,561.37c6.22-2.8,14.12,1.86,14.76,8.61,1.09,6.38-4.74,12.72-11.18,12.18-5.73-.08-10.74-5.52-10.29-11.24.04-4.17,2.96-7.95,6.71-9.55Z"/>
        <path d="M392.89,561.39c6.2-2.83,14.12,1.77,14.81,8.51,1.07,6.06-4.11,12.23-10.25,12.26-5.69.42-11.09-4.53-11.21-10.22-.38-4.5,2.59-8.8,6.65-10.55Z"/>
        <path d="M527.97,561.36c6.18-2.76,14,1.81,14.72,8.49,1.09,6-3.95,12.14-10.02,12.3-5.79.55-11.34-4.47-11.43-10.25-.36-4.52,2.64-8.82,6.73-10.54Z"/>
        <path d="M581.95,561.37c6.22-2.8,14.13,1.86,14.76,8.62,1,6-4.09,12.07-10.15,12.17-6.13.52-11.85-5.19-11.32-11.31.07-4.14,2.98-7.88,6.71-9.48Z"/>
        <path d="M635.94,561.37c6.24-2.81,14.16,1.88,14.78,8.66.97,5.98-4.11,12.03-10.16,12.13-6.13.52-11.84-5.18-11.32-11.3.07-4.14,2.97-7.89,6.7-9.49Z"/>
        <path d="M743.93,561.38c6.21-2.82,14.12,1.82,14.78,8.57,1.01,5.98-4.02,12.05-10.06,12.2-5.76.54-11.3-4.45-11.41-10.22-.37-4.51,2.61-8.82,6.69-10.55Z"/>
        <path d="M338.94,588.37c6.21-2.8,14.11,1.83,14.77,8.58,1.03,6.02-4.09,12.12-10.17,12.21-6.12.51-11.82-5.18-11.3-11.3.07-4.14,2.97-7.89,6.7-9.49Z"/>
        <path d="M446.96,588.36c6.18-2.77,14.02,1.81,14.74,8.51,1.08,6.03-4.04,12.19-10.15,12.29-5.73.47-11.21-4.51-11.31-10.25-.37-4.51,2.63-8.82,6.72-10.55Z"/>
        <path d="M500.98,588.35c6.2-2.75,14.04,1.85,14.72,8.56,1.05,6-4.01,12.1-10.08,12.25-5.76.51-11.28-4.48-11.38-10.25-.37-4.52,2.64-8.84,6.74-10.56Z"/>
        <path d="M527.96,588.36c6.2-2.78,14.07,1.84,14.74,8.57,1.06,6.06-4.12,12.2-10.25,12.23-5.7.42-11.09-4.53-11.21-10.22-.38-4.52,2.62-8.85,6.72-10.58Z"/>
        <path d="M635.96,588.36c6.21-2.79,14.1,1.87,14.75,8.61,1.01,5.99-4.05,12.05-10.09,12.19-5.77.51-11.29-4.49-11.38-10.26-.36-4.51,2.63-8.82,6.72-10.54Z"/>
        <path d="M716.95,588.37c6.22-2.79,14.12,1.85,14.76,8.61,1,5.97-4.04,12.03-10.08,12.18-5.79.52-11.33-4.52-11.39-10.31-.34-4.49,2.65-8.77,6.71-10.48Z"/>
        <path class="cls-2" d="M164.1,615.59c10.58-4.91,23.27-4.92,33.86,0,10.12,4.63,18.11,13.57,21.55,24.16,3.92,11.65,2.09,25.04-4.84,35.2-7.57,11.53-21.42,18.61-35.21,17.91-14.95-.37-29.09-9.94-35.24-23.53-4.92-10.59-4.9-23.28,0-33.87,4.03-8.7,11.18-15.84,19.88-19.87Z"/>
        <path d="M365.97,615.36c6.19-2.77,14.04,1.83,14.73,8.54,1.06,6.01-4.02,12.13-10.1,12.26-5.76.5-11.27-4.51-11.36-10.27-.36-4.51,2.64-8.81,6.73-10.53Z"/>
        <path d="M392.96,615.36c6.21-2.78,14.07,1.85,14.74,8.57,1.13,6.39-4.7,12.76-11.16,12.23-5.75-.07-10.76-5.53-10.3-11.27.06-4.16,2.97-7.93,6.72-9.53Z"/>
        <path d="M419.96,615.37c6.22-2.8,14.12,1.87,14.75,8.63,1,5.98-4.07,12.04-10.12,12.16-5.76.49-11.26-4.51-11.35-10.27-.36-4.5,2.64-8.81,6.72-10.52Z"/>
        <path d="M447,615.35c6.24-2.77,14.12,1.93,14.72,8.69.97,6.03-4.19,12.09-10.28,12.12-5.72.42-11.13-4.59-11.2-10.3-.35-4.51,2.67-8.81,6.76-10.51Z"/>
        <path d="M500.93,615.37c6.24-2.81,14.16,1.87,14.79,8.64.98,5.99-4.1,12.04-10.15,12.15-5.75.48-11.23-4.51-11.33-10.25-.37-4.5,2.62-8.81,6.69-10.54Z"/>
        <path d="M528.01,615.34c6.19-2.73,14.01,1.88,14.69,8.58,1.06,6.05-4.11,12.2-10.24,12.24-5.7.42-11.11-4.53-11.22-10.23-.38-4.54,2.65-8.88,6.77-10.59Z"/>
        <path d="M554.96,615.36c6.19-2.76,14.02,1.81,14.74,8.51,1.07,6.02-4.02,12.18-10.12,12.29-5.74.49-11.22-4.48-11.34-10.22-.38-4.52,2.62-8.86,6.72-10.58Z"/>
        <path d="M581.91,615.38c6.24-2.83,14.18,1.85,14.81,8.63.98,6-4.12,12.06-10.18,12.15-6.12.51-11.83-5.19-11.3-11.31.07-4.13,2.96-7.86,6.67-9.47Z"/>
        <path d="M608.96,615.36c6.23-2.8,14.14,1.89,14.76,8.67,1.05,6.35-4.75,12.65-11.16,12.13-6.57-.04-11.84-7.05-10.04-13.39.81-3.3,3.34-6.07,6.44-7.41Z"/>
        <path d="M635.92,615.38c6.18-2.8,14.05,1.77,14.77,8.47,1.09,6.02-3.98,12.17-10.08,12.31-5.76.51-11.26-4.48-11.37-10.24-.37-4.5,2.61-8.81,6.68-10.54Z"/>
        <path d="M743.97,615.36c6.24-2.79,14.13,1.9,14.75,8.67.98,6.01-4.16,12.07-10.24,12.13-5.72.44-11.15-4.54-11.24-10.26-.37-4.51,2.64-8.83,6.73-10.54Z"/>
        <path d="M365.98,642.35c6.2-2.75,14.04,1.86,14.72,8.57,1.04,5.98-3.99,12.07-10.03,12.23-5.78.54-11.33-4.46-11.43-10.24-.37-4.52,2.64-8.84,6.74-10.56Z"/>
        <path d="M419.98,642.36c6.16-2.75,13.97,1.79,14.71,8.46,1.11,6.04-3.99,12.23-10.11,12.34-5.77.49-11.28-4.54-11.34-10.31-.34-4.5,2.66-8.79,6.74-10.49Z"/>
        <path d="M500.97,642.36c6.2-2.77,14.05,1.85,14.73,8.56,1.05,6-4.02,12.1-10.08,12.24-5.76.51-11.27-4.47-11.38-10.23-.38-4.52,2.63-8.85,6.73-10.57Z"/>
        <path d="M527.89,642.39c6.24-2.86,14.22,1.85,14.83,8.65.97,6.01-4.16,12.06-10.22,12.12-5.72.44-11.15-4.52-11.26-10.23-.37-4.49,2.59-8.8,6.65-10.54Z"/>
        <path d="M554.86,642.4c6.2-2.85,14.14,1.75,14.84,8.5,1.06,6.02-4.05,12.16-10.14,12.26-5.74.47-11.21-4.5-11.32-10.23-.37-4.48,2.58-8.77,6.62-10.53Z"/>
        <path d="M635.9,642.39c6.22-2.84,14.16,1.81,14.81,8.58,1.01,5.98-4.03,12.03-10.07,12.18-5.78.53-11.33-4.5-11.4-10.28-.35-4.48,2.62-8.75,6.66-10.48Z"/>
        <path d="M689.96,642.36c6.22-2.78,14.1,1.87,14.75,8.61,1.01,6-4.06,12.07-10.12,12.19-5.75.5-11.25-4.5-11.35-10.26-.37-4.51,2.63-8.82,6.72-10.54Z"/>
        <path d="M716.99,642.35c6.23-2.76,14.09,1.9,14.72,8.64,1.01,6.02-4.13,12.11-10.22,12.17-5.74.44-11.19-4.57-11.25-10.31-.35-4.5,2.67-8.8,6.75-10.5Z"/>
        <path d="M311.97,669.36c6.18-2.76,14.01,1.82,14.73,8.51,1.16,6.4-4.66,12.8-11.13,12.29-6.13-.04-11.29-6.19-10.26-12.25.45-3.78,3.21-7.07,6.66-8.55Z"/>
        <path d="M338.94,669.37c6.17-2.78,14.02,1.78,14.75,8.48,1.1,6.03-4,12.19-10.11,12.31-6.12.54-11.84-5.15-11.34-11.26.05-4.16,2.96-7.92,6.7-9.53Z"/>
        <path d="M420.76,669.07c6.42-2.27,13.94,2.97,14.03,9.77.53,6.1-5.11,11.79-11.21,11.32-5.76-.05-10.8-5.51-10.34-11.25.06-4.45,3.37-8.48,7.52-9.84Z"/>
        <path d="M447.76,669.07c6.1-2.14,13.28,2.46,13.94,8.86,1.05,6.03-4.08,12.15-10.17,12.23-5.72.46-11.17-4.5-11.29-10.22-.4-4.8,3.01-9.41,7.52-10.87Z"/>
        <path d="M474.78,669.06c7.53-2.71,15.9,5,13.76,12.72-1.42,8-12.7,11.34-18.13,5.21-5.87-5.23-3.09-15.86,4.37-17.93Z"/>
        <path d="M501.78,669.07c6.43-2.27,13.95,3.01,14.01,9.82.55,6.46-5.83,12.31-12.23,11.18-6.11-.64-10.67-7.24-9.06-13.2.85-3.62,3.76-6.66,7.28-7.8Z"/>
        <path d="M527.97,669.36c6.49-2.93,14.7,2.32,14.81,9.42.58,6.16-5.16,11.92-11.32,11.38-6.1-.12-11.19-6.26-10.14-12.28.45-3.78,3.21-7.04,6.65-8.52Z"/>
        <path d="M555.72,669.08c6.43-2.3,13.98,2.95,14.07,9.76.58,6.48-5.8,12.35-12.21,11.24-6.74-.66-11.37-8.55-8.59-14.76,1.24-2.89,3.74-5.25,6.73-6.24Z"/>
        <path d="M608.98,669.35c7.27-3.31,16.21,3.7,14.72,11.54-.73,8.19-11.94,12.41-17.8,6.56-6.11-4.83-4.14-15.46,3.08-18.1Z"/>
        <path d="M635.96,669.36c6.23-2.79,14.14,1.89,14.76,8.66,1.05,6.34-4.71,12.63-11.11,12.14-5.78-.03-10.85-5.52-10.37-11.29.06-4.15,2.98-7.91,6.72-9.51Z"/>
        <path d="M662.99,669.35c7.21-3.27,16.08,3.59,14.73,11.38-.6,8.29-11.93,12.62-17.83,6.71-6.11-4.84-4.12-15.46,3.1-18.09Z"/>
        <path d="M716.94,669.37c6.52-2.96,14.77,2.34,14.85,9.47.57,6.47-5.78,12.34-12.18,11.24-6.14-.62-10.74-7.25-9.11-13.23.78-3.33,3.33-6.13,6.44-7.48Z"/>
        <path d="M744.72,669.08c6.46-2.32,14.05,3.01,14.07,9.86.51,6.43-5.82,12.23-12.19,11.14-6.12-.62-10.71-7.23-9.11-13.19.85-3.61,3.73-6.64,7.23-7.81Z"/>
        <path d="M339,696.35c6.21-2.75,14.06,1.89,14.71,8.62,1.1,6.41-4.78,12.77-11.25,12.19-5.74-.12-10.72-5.61-10.22-11.34.09-4.15,3.01-7.89,6.76-9.47Z"/>
        <path d="M365.94,696.37c6.24-2.81,14.15,1.87,14.77,8.64,1.08,6.37-4.75,12.69-11.19,12.15-5.76-.09-10.77-5.58-10.28-11.33.08-4.13,2.98-7.86,6.7-9.46Z"/>
        <path d="M392.93,696.37c7.26-3.35,16.23,3.62,14.78,11.47-.69,8.21-11.92,12.48-17.8,6.62-6.11-4.81-4.17-15.42,3.02-18.09Z"/>
        <path d="M419.95,696.37c7.26-3.35,16.24,3.65,14.75,11.51-.72,8.23-12,12.44-17.85,6.53-6.05-4.84-4.07-15.39,3.1-18.04Z"/>
        <path d="M473.99,696.35c6.21-2.76,14.07,1.88,14.72,8.61,1.02,6-4.06,12.08-10.12,12.2-5.76.49-11.27-4.51-11.35-10.27-.36-4.52,2.65-8.83,6.75-10.54Z"/>
        <path d="M500.98,696.35c6.2-2.75,14.04,1.85,14.72,8.56,1.06,6.05-4.1,12.21-10.23,12.25-5.69.42-11.08-4.5-11.23-10.18-.4-4.54,2.62-8.9,6.74-10.63Z"/>
        <path d="M527.95,696.37c6.51-2.95,14.74,2.32,14.84,9.44.55,6.15-5.19,11.89-11.34,11.35-6.48-.12-11.65-6.99-9.96-13.25.77-3.36,3.33-6.19,6.46-7.54Z"/>
        <path d="M554.95,696.37c6.24-2.81,14.17,1.89,14.77,8.68,1.04,6.36-4.77,12.64-11.19,12.11-5.75-.08-10.77-5.56-10.29-11.31.07-4.14,2.97-7.88,6.71-9.48Z"/>
        <path d="M581.95,696.37c6.18-2.78,14.04,1.8,14.75,8.51,1.07,6-3.98,12.12-10.05,12.27-5.76.54-11.29-4.44-11.41-10.2-.38-4.52,2.61-8.85,6.71-10.58Z"/>
        <path d="M608.9,696.39c7.25-3.39,16.26,3.58,14.81,11.44-.68,8.25-11.99,12.5-17.85,6.59-6.04-4.83-4.1-15.35,3.04-18.03Z"/>
        <path d="M635.88,696.4c6.21-2.86,14.15,1.77,14.82,8.53,1.04,6-4.03,12.1-10.1,12.23-5.77.5-11.28-4.52-11.36-10.29-.35-4.47,2.6-8.73,6.64-10.47Z"/>
        <path d="M311.89,723.39c6.23-2.85,14.18,1.81,14.82,8.59,1.01,6.03-4.14,12.14-10.24,12.18-5.69.43-11.09-4.51-11.23-10.19-.39-4.51,2.58-8.83,6.65-10.58Z"/>
        <path d="M447.76,723.07c6.12-2.15,13.33,2.49,13.95,8.93,1,6-4.11,12.08-10.18,12.16-6.1.5-11.79-5.17-11.29-11.27.07-4.44,3.37-8.46,7.52-9.82Z"/>
        <path d="M473.9,723.39c6.24-2.85,14.19,1.83,14.81,8.62.99,6-4.11,12.07-10.19,12.15-5.73.46-11.19-4.53-11.28-10.26-.36-4.49,2.61-8.78,6.66-10.51Z"/>
        <path d="M527.94,723.37c6.21-2.8,14.1,1.83,14.77,8.57,1.04,6.05-4.13,12.18-10.25,12.22-5.71.42-11.13-4.55-11.22-10.26-.36-4.5,2.63-8.8,6.7-10.53Z"/>
        <path d="M662.91,723.38c6.19-2.81,14.08,1.78,14.79,8.5,1.06,6-3.98,12.12-10.05,12.27-5.77.54-11.31-4.46-11.41-10.23-.37-4.5,2.6-8.8,6.67-10.54Z"/>
        <path d="M743.89,723.39c6.18-2.82,14.08,1.74,14.8,8.46,1.1,6.06-4.05,12.24-10.18,12.31-5.72.45-11.15-4.51-11.27-10.22-.38-4.5,2.59-8.8,6.65-10.55Z"/>
        <g>
          <path class="cls-2" d="M399.58,348.28c14.81-2.86,30.32.33,43.85,6.63,16.64,7.67,31.12,21.55,36.74,39.28,4.61,14.48.71,30.3-7.06,42.94-17.06,29.46-59.61,39.25-88.4,21.64-12.93-7.14-22.47-19.92-25.65-34.34-4.84-18.82,1.1-38.72,10.83-54.96,6.1-11.06,17.11-19.32,29.69-21.18ZM390.58,360.36c-7.03,3.39-11.5,11.29-10.72,19.08.91,10.83,7.53,20.27,15.58,27.18,13.72,12.82,32.52,19.91,51.29,19.38-.2,1.48-.42,2.95-.62,4.44-4.67-.31-9.31-.87-13.98-1.16-13.86-1.55-26.68-7.51-38.86-13.97,13.98,13.42,34.27,17.93,53.11,15.67-2.47,9.75-7.64,18.59-14.55,25.84,9.66-5.28,16.72-15.04,18.29-25.99,2.76-.88,5.59-1.54,8.42-2.17-2.79-.9-5.5.71-8.24,1.04.01-.97.04-2.89.04-3.87,5.04-1.33,10.45-2.06,14.8-5.15,4.72-2.96,7.41-8.5,7.54-13.98.43-7.99-3.18-15.55-7.6-21.97-11.53-15.87-30.12-26.46-49.66-28.21-8.38-1.14-17.22.08-24.83,3.85ZM373.81,375.71c-2.91,10.55,2.26,21.39,9.78,28.67-5.18-8.78-9.58-18.29-9.78-28.67ZM363.57,406.47c-.58,3.71.87,7.33,3.01,10.28-.98-3.43-1.79-6.93-3.01-10.28ZM372.83,415.3c-.21,7.68,3.44,15.25,10.01,19.38-3.95-6.13-7.73-12.4-10.01-19.38ZM361.27,418.1c1.29,7.74,4.48,15.5,10.78,20.5-3.64-6.82-7.06-13.74-10.78-20.5ZM457.25,447.21c6.94-2.92,10.97-10.13,12.95-17.06-4.26,5.74-7.89,11.95-12.95,17.06ZM374.24,447.15c4.86,2.1,10.99,2.16,15.38-1.09,3.87-2.69,5.87-7.1,8.11-11.08-6.17,6.62-14.43,11.16-23.49,12.17ZM415.83,443.49c.79-1.15,2.38-3.47,3.17-4.64-6.63,5.69-13.63,10.87-21.13,15.34,10.38-1.47,20.42-7.44,26.31-16.14-2.89,1.62-5.45,3.79-8.35,5.43ZM429.07,447.83c-5.17,6.42-12.82,10.23-20.28,13.39,8.92,1.74,16.86-5.1,20.3-12.64,0-.18-.01-.56-.02-.75Z"/>
          <path class="cls-2" d="M395.09,372.13c3.74-5.34,10.8-6.81,16.93-6.93,12,.42,23.89,4.6,33.36,12.02-10.14-5.76-21.51-10.84-33.46-9.58-5.44.62-11.76,3.59-12.5,9.66-.33,5.69,2.77,11.05,6.44,15.21,9.21,9.81,22.31,15.87,35.74,16.6,5.82.26,12.8-1.11,16.12-6.4,2.91-5.31-.09-11.23-2.59-16.04,4.53,4.38,7.4,11.18,6.1,17.49-1.41,6.1-7.96,8.86-13.57,9.65-9.33.98-18.84-.89-27.4-4.62-9.77-4.53-19.29-10.93-24.55-20.62-2.7-4.93-4.02-11.51-.62-16.45Z"/>
        </g>
      </g>
    </g>
  </g>
</svg>