<?xml version="1.0" encoding="UTF-8"?>
<svg id="Capa_2" data-name="Capa 2" xmlns="http://www.w3.org/2000/svg" viewBox="0 0 101.79 180.76">
  <g id="Layer_1" data-name="Layer 1">
    <g>
      <path d="M.52,8.88C2.22,3.78,7.3.06,12.67,0c25.48,0,50.97,0,76.45,0,6.07.05,11.82,4.88,12.6,10.95.14,8.01.02,16.03.06,24.05,0,42.06.01,84.12,0,126.19.32,6.64-5.7,12.54-12.25,12.63-2.63.02-5.26-.01-7.89.03,0,1.49.06,2.97-.08,4.46-.72,1.46-2.34,2.71-4.04,2.4-1.17-.4-2.26-1.21-2.81-2.34-.17-1.6-.09-3.21-.13-4.81-15.79-.02-31.57-.02-47.36,0-.05,1.6.04,3.2-.13,4.79-1.11,2.83-5.7,2.79-6.86.03-.15-1.52.04-3.07-.27-4.58-3,0-6,.09-8.99-.06-3.52-.67-7.03-2.55-8.92-5.68-1.22-1.92-2.17-4.12-2.02-6.44C-.02,112.41.02,63.18,0,13.96c.06-1.7-.14-3.47.52-5.08ZM11.09,7.49c-2,.68-3.89,2.49-3.79,4.72-.05,14.04,0,28.08-.03,42.12.13.58-.33,1.9.62,1.87,23.35.06,46.7,0,70.04.03,5.46-.07,10.95.14,16.4-.1.38-1.71.07-3.5.17-5.25,0-12.85.02-25.7-.01-38.54.19-2.68-2.46-4.84-4.94-5.04-25.48-.03-50.97,0-76.45-.01-.67.04-1.39-.08-2.01.21ZM7.32,63.52c-.08,32.56-.02,65.13-.03,97.69-.3,2.88,2.56,5.55,5.37,5.34,25.48,0,50.97,0,76.45,0,2.87.21,5.71-2.55,5.38-5.45-.02-32.53.05-65.06-.03-97.59-29.05.02-58.1-.01-87.14.02Z"/>
      <path d="M17.99,19.33c1.87-.36,4.15,1.15,3.98,3.17.02,5.32.03,10.64,0,15.96.14,1.28-1.07,2.12-1.98,2.79-1.27.07-2.82.38-3.79-.66-.73-.67-1.27-1.61-1.2-2.61-.02-5,0-10,0-15-.2-1.77,1.38-3.28,3-3.64Z"/>
      <path d="M17.66,83.37c1.8-.61,3.65.8,4.26,2.4.14,5.4.03,10.82.06,16.22.34,2.41-2.82,4.59-4.92,3.23-1.2-.63-2.2-1.87-2.06-3.29-.01-4.99-.01-9.98,0-14.97-.15-1.69,1.24-2.98,2.67-3.59Z"/>
    </g>
  </g>
</svg>