<svg xmlns="http://www.w3.org/2000/svg" data-name="Capa 2" viewBox="0 0 427.36 94.4"><g data-name="Layer 1"><g fill="#c7a140" data-name="Capa 1-2"><path d="m363.89 70.42-.67-.34a156.77 156.77 0 0 1 21.95-31.99c7.57-8.53 16.09-16.25 25.34-22.94l.44.61a156.17 156.17 0 0 0-25.22 22.83c-8.55 9.64-15.9 20.35-21.84 31.83Z"/><path d="M409.79 16.44h-.06l-.17-.04-.19-.34.17-.29c.5-.51.94-1.1 1.45-1.79 1.21-1.64 2.87-3.88 6.41-6.31 4.15-2.85 8.83-4.55 8.88-4.56l1.09-.39-.65.96s-3.19 4.64-7.32 7.84c-3.95 3.06-8.82 4.93-9.59 4.93Zm15.54-12.16c-1.64.68-4.7 2.07-7.51 4-3.44 2.36-4.98 4.45-6.23 6.13-.25.34-.49.66-.72.96 1.71-.63 5.14-2.2 8.06-4.46 2.85-2.21 5.24-5.11 6.4-6.63Z"/><path d="M406.26 19.39a.37.37 0 0 1-.23-.07.387.387 0 0 1-.16-.34l.37.03-.37-.1c0-.03 0-.06.02-.09.21-.64.34-1.36.5-2.2.36-2 .86-4.75 2.96-8.49 2.46-4.39 5.92-7.98 5.95-8.02.11-.12.29-.15.43-.08.15.07.23.23.21.39 0 .06-.82 5.57-3.11 10.27-2.24 4.6-5.94 8.54-6.48 8.68-.03 0-.06.01-.1.01Zm-.39-.4.37.03-.37-.03Zm9.11-17.4c-1.17 1.34-3.3 3.94-4.97 6.91-2.04 3.63-2.5 6.19-2.88 8.25-.08.42-.15.81-.23 1.18 1.25-1.33 3.65-4.25 5.26-7.57 1.58-3.25 2.44-6.9 2.81-8.78Zm-15.24 22.83c-.06 0-.12-.01-.18-.04a.416.416 0 0 1-.21-.29v-.1c0-.06 0-.12.01-.15.12-.73.15-1.6.17-2.6.06-2.37.15-5.62 1.89-10.28 2.06-5.48 5.38-10.2 5.41-10.25.09-.13.26-.19.42-.14.16.05.26.19.26.35 0 .06.05 6.57-1.75 12.37-1.76 5.68-5.29 10.84-5.88 11.09-.05.02-.11.03-.16.03Zm7.02-22.22c-1.08 1.68-3.17 5.16-4.62 9.02-1.7 4.54-1.78 7.59-1.84 10.04-.02.58-.03 1.12-.07 1.63 1.18-1.66 3.5-5.53 4.83-9.82 1.29-4.17 1.61-8.71 1.69-10.87Z"/><path d="M409.17 19.78c-1.84 0-3.14-.16-3.35-.31a.39.39 0 0 1-.16-.29c0-.13.05-.25.15-.32.01 0 .09-.06.1-.07.69-.27 1.35-.64 2.11-1.07 1.82-1.02 4.31-2.42 8.61-3.21 5.05-.92 10.11-.54 10.16-.54.16.01.3.13.34.29s-.03.32-.17.41c-.05.03-4.93 2.99-10.12 4.25-2.72.66-5.56.87-7.68.87Zm-1.9-.81c1.84.13 5.7.11 9.39-.79 3.6-.88 7.07-2.6 8.78-3.53-1.8-.05-5.25-.04-8.68.59-4.18.76-6.51 2.07-8.38 3.12-.39.22-.76.43-1.11.61Zm2.39 6.62c-5.12 0-9.61-1.03-9.99-1.43a.406.406 0 0 1-.11-.33.4.4 0 0 1 .19-.28s.09-.05.12-.06c.9-.21 1.77-.54 2.78-.93 2.4-.91 5.69-2.16 10.96-2.34 5.97-.2 11.53 1.03 12.14 1.17.16.04.28.17.29.33s-.07.32-.22.38c-.06.03-6.57 2.74-13.01 3.34-1.06.1-2.12.14-3.16.14Zm-8.52-1.68c2.02.49 6.77 1.24 11.6.79 4.72-.44 9.48-2.03 11.62-2.83-2.08-.39-6.28-1.05-10.72-.9-5.15.17-8.24 1.34-10.72 2.29-.64.24-1.22.46-1.78.64Zm5.89 7.52c-6.15 0-12.4-1.58-12.88-2.04a.456.456 0 0 1-.13-.29c0-.1.04-.2.12-.27a.24.24 0 0 1 .12-.07c.09-.05.15-.06.18-.06.84-.14 1.71-.42 2.73-.75 2.4-.77 5.69-1.83 11.23-1.71 6.52.15 12.93 1.85 13 1.87.16.04.27.18.28.35 0 .16-.09.31-.25.37-.06.02-6.53 2.36-13.25 2.59-.38.01-.77.02-1.15.02Zm-11.34-2.24c2.19.61 7.37 1.66 12.47 1.48 4.87-.16 9.61-1.46 11.78-2.14-2.17-.5-6.84-1.43-11.55-1.54-5.43-.12-8.51.87-10.99 1.67-.61.2-1.17.38-1.71.52Zm8.5 9.66c-7.53 0-14.73-2.7-15.69-3.08-.05.01-.1.02-.14.03-.04 0-.07.01-.07.02-.2.03-.27 0-.37-.12a.357.357 0 0 1-.07-.37c.02-.07.05-.13.3-.22v-.03l.26-.05c.63-.17 2.01-.46 5.13-1.02 2.27-.41 4.24-.42 10.07-.03 7.98.53 15.37 1.29 15.44 1.3.17.02.31.15.33.33.02.17-.08.34-.24.4-.07.03-7.19 2.6-13.91 2.83-.34.01-.68.02-1.03.02Zm-14.29-3.36c2.59.9 8.92 2.81 15.29 2.6 4.66-.16 9.52-1.47 12-2.23-2.67-.26-8.01-.75-13.65-1.13-6.12-.41-7.83-.35-9.88.02-.86.16-2.51.49-3.76.74Zm8.31 8.82h-.22c-7.12-.06-14.11-3-15.04-3.4-.05 0-.1.01-.14.02h-.05c-.19.02-.27-.01-.37-.13a.412.412 0 0 1-.06-.37c.03-.08.05-.13.31-.21v-.02l.19-.03c.57-.14 1.83-.33 4.71-.73 2.06-.29 3.85-.22 9.11.35 7.2.78 13.86 1.76 13.93 1.77.17.03.31.17.32.34.01.17-.09.33-.26.39-.06.02-6.43 2.03-12.45 2.03Zm-13.84-3.63c2.39.93 7.97 2.83 13.63 2.88 4.12.03 8.42-.91 10.73-1.51-2.46-.34-7.17-.97-12.14-1.51-5.19-.56-6.95-.63-8.93-.36-.73.1-2.16.32-3.29.5Zm9.25 8.92c-7.01 0-13.57-2.45-14.44-2.79-.05.01-.1.02-.14.03-.02 0-.04 0-.05.01-.2.03-.27 0-.37-.11a.357.357 0 0 1-.07-.37c.03-.08.05-.14.3-.23v-.02l.19-.04c.58-.17 1.89-.44 4.94-1.03 2.16-.41 4.03-.44 9.52-.12 7.52.43 14.47 1.1 14.54 1.1.17.02.31.15.34.32.02.17-.08.34-.24.4-.07.03-6.9 2.54-13.26 2.81-.42.02-.83.03-1.25.03Zm-13.06-3.09c2.45.84 8.31 2.57 14.28 2.31 4.36-.19 8.95-1.45 11.35-2.21-2.55-.23-7.51-.64-12.74-.94-5.42-.31-7.25-.29-9.34.11-.78.15-2.35.48-3.55.73Zm9.2 8.46c-7.01 0-13.56-2.45-14.44-2.79-.05.01-.1.02-.14.03-.02 0-.04 0-.05.01-.2.03-.27 0-.37-.11a.357.357 0 0 1-.07-.37c.03-.08.05-.14.3-.23v-.02l.19-.04c.58-.17 1.89-.44 4.94-1.03 2.16-.41 4.03-.44 9.52-.12 7.52.43 14.47 1.1 14.54 1.1.17.02.31.15.34.32.02.17-.08.34-.24.4-.07.03-6.9 2.54-13.26 2.81-.42.02-.83.03-1.25.03Zm-13.06-3.08c2.45.84 8.31 2.57 14.28 2.31 4.36-.19 8.95-1.45 11.35-2.21-2.55-.23-7.51-.64-12.74-.94-5.42-.31-7.25-.29-9.34.11-.78.15-2.35.48-3.55.73Zm8.09 8.34c-6.39 0-12.33-2.19-13.19-2.52-.04 0-.08.02-.11.02-.04 0-.06.01-.07.01-.19.03-.27 0-.37-.11a.383.383 0 0 1-.08-.37c.03-.09.05-.15.29-.23v-.02l.14-.03c.52-.16 1.73-.41 4.6-.97 2-.39 3.72-.42 8.79-.15 6.93.37 13.35.95 13.41.96.17.02.31.15.34.32s-.08.34-.24.4c-.06.02-6.38 2.37-12.25 2.65-.42.02-.85.03-1.27.03Zm-11.8-2.82c2.32.78 7.63 2.3 13.03 2.04 3.93-.19 8.08-1.33 10.33-2.04-2.39-.2-6.87-.55-11.59-.8-4.99-.27-6.68-.24-8.6.14-.71.14-2.08.43-3.17.66Z"/><path d="M382.23 42.2c-.1 0-.19-.04-.26-.11-.11-.11-.13-.17-.09-.38s0-.02.01-.04c.01-.06.03-.12.05-.2-.29-1.03-2.57-9.65-1.63-18.06.8-7.14 3.97-14.51 4-14.58.07-.16.24-.25.42-.22.17.03.3.19.3.36 0 .34.13 8.17-.02 16.56-.11 6.23-.29 8.33-.89 10.71-.85 3.36-1.24 4.8-1.47 5.43-.04.14-.06.21-.06.23h-.02c-.11.24-.17.26-.24.28-.03 0-.07.01-.1.01Zm2.08-31.33c-.98 2.59-2.7 7.66-3.25 12.62-.76 6.77.61 13.68 1.29 16.53.36-1.33.84-3.09 1.06-3.95.55-2.16.75-3.99.87-10.54.11-6.04.07-11.79.04-14.65Zm-5.87 36.05a.36.36 0 0 1-.22-.07c-.13-.09-.16-.15-.15-.35s0-.04 0-.08 0-.09.01-.15c-.44-.96-4-8.9-4.47-17.04-.4-6.92 1.41-14.36 1.43-14.43.04-.17.18-.29.38-.29.18 0 .33.13.36.31.01.08 1.43 7.63 2.67 15.81.91 5.95 1.08 7.98.9 10.35-.27 3.32-.41 4.75-.51 5.37l-.02.22h-.02c-.06.25-.12.28-.19.31-.05.02-.1.04-.16.04Zm-3.06-30.1c-.51 2.62-1.29 7.62-1.02 12.37.38 6.51 2.76 12.89 3.88 15.56.13-1.3.29-2.98.36-3.83.17-2.14.06-3.91-.89-10.17-.87-5.74-1.83-11.18-2.32-13.92Zm-.68 35.3c-.07 0-.13-.02-.19-.05-.13-.08-.17-.14-.18-.34s0-.03 0-.06v-.16c-.5-.85-4.54-7.87-5.64-15.67-.94-6.62.19-14.15.2-14.23.03-.2.21-.34.42-.32.16.02.28.14.32.28l.03.12c.62 2.26 2.24 8.22 3.79 14.68 1.35 5.59 1.68 7.52 1.69 9.85.02 3.26 0 4.67-.05 5.29l-.02.22c-.04.26-.09.29-.16.33-.06.03-.12.05-.19.05Zm-5.31-28.52c-.27 2.64-.61 7.6.03 12.12.88 6.19 3.64 11.89 4.93 14.29.02-1.28.03-2.96.03-3.79-.01-2.11-.26-3.8-1.67-9.68a488.49 488.49 0 0 0-3.31-12.94Zm1.95 33.82s-.09 0-.14-.03c-.15-.06-.2-.12-.23-.31s0-.02 0-.04c0-.04-.01-.09-.02-.14-.58-.77-5.13-6.95-7.13-13.59-1.71-5.66-1.66-11.95-1.66-12.01 0-.18.13-.33.3-.36.17-.04.35.05.42.22.03.06 2.71 6.15 5.38 12.75 1.95 4.83 2.5 6.49 2.8 8.43.44 2.77.61 3.96.64 4.5l.02.15h-.02c0 .26-.05.3-.12.36a.4.4 0 0 1-.23.08Zm-8.39-24.2c.11 2.27.47 6.21 1.58 9.88 1.55 5.15 4.68 10.03 6.2 12.22-.14-1.02-.32-2.22-.42-2.87-.3-1.88-.84-3.5-2.76-8.27-1.8-4.46-3.61-8.68-4.6-10.96Zm25.37 2.53c-.11 0-.21-.05-.28-.13-.1-.12-.12-.19-.06-.38s.01-.03.02-.06c.02-.05.03-.1.05-.16-.22-1.03-1.76-8.86-.37-16.44 1.18-6.47 4.57-13.1 4.6-13.17.08-.16.26-.24.43-.19.17.05.29.21.28.38 0 .07-.38 7.29-1.05 15.05-.49 5.66-.78 7.57-1.49 9.73-1 3.03-1.45 4.33-1.69 4.9l-.07.21h-.02c-.12.23-.18.24-.26.26h-.07Zm3.81-28.29c-1.07 2.37-2.92 6.85-3.72 11.24-1.1 6.02-.32 12.22.13 14.89.41-1.18.93-2.69 1.18-3.46.64-1.96.94-3.61 1.46-9.56.47-5.36.79-10.46.94-13.12Zm2.12 22.15c-.12 0-.23-.05-.3-.15-.1-.12-.11-.2-.04-.38s.02-.04.04-.09c.01-.03.03-.07.04-.1-.16-.96-1.21-7.99.51-14.93 1.47-5.94 5.04-12.15 5.08-12.21.09-.15.27-.22.44-.17.17.06.27.22.26.4 0 .07-.74 6.64-1.79 13.73-.76 5.17-1.14 6.92-1.93 8.92-1.15 2.88-1.63 4.08-1.89 4.59l-.06.15h-.02c-.13.21-.19.22-.28.24h-.05Zm5.05-25.77c-1.15 2.24-3.09 6.33-4.08 10.3-1.34 5.43-.96 10.92-.67 13.38.45-1.09 1.02-2.47 1.3-3.17.71-1.8 1.08-3.32 1.88-8.75.71-4.76 1.27-9.29 1.56-11.76Z"/></g><path d="M382.83 94.4h-.25c-3.12-.09-5.2-1.81-5.96-2.54-1.21-1.35-2.06-2.93-2.47-4.61-.89-3.58.4-6.61.99-7.74l7.6-13.31 7.72 13.43c.46.78 2.65 4.9.88 9.07-.51 1.2-1.29 2.27-2.31 3.18-.61.59-2.86 2.53-6.21 2.53Zm-.09-26.2-6.73 11.78c-.53 1.02-1.7 3.77-.9 7.02a9.901 9.901 0 0 0 2.22 4.16c.64.63 2.49 2.15 5.26 2.23 3.09.11 5.18-1.7 5.75-2.25.93-.83 1.62-1.78 2.07-2.84 1.58-3.73-.41-7.46-.82-8.17l-6.85-11.92Z" fill="#22821a"/><path d="M382.87 91c-.18 0-.34-.13-.37-.31-.04-.2.1-.4.3-.44.87-.16 2.15-.57 3.26-1.65 1.82-1.77 1.9-4.11 1.88-4.79 0-.21.16-.38.36-.39.21 0 .38.16.39.36.02.75-.06 3.36-2.1 5.35-1.25 1.22-2.68 1.68-3.65 1.85h-.07ZM14.16 64.62v15.83c0 7.56-3.01 8.81-9.52 8.81H.25V55.85h4.39c6.51 0 9.52 1.21 9.52 8.77Zm-3.13 15.82V64.61c0-4.93-1.46-5.64-6.39-5.64H3.39v27.15h1.25c4.93 0 6.39-.75 6.39-5.68Z" fill="#22821a"/><path d="M4.64 89.51H0V55.6h4.64c6.62 0 9.77 1.35 9.77 9.02v15.83c0 7.71-3.15 9.06-9.77 9.06ZM.5 89h4.13c6.41 0 9.27-1.24 9.27-8.56V64.61c0-7.33-2.73-8.52-9.27-8.52H.5V89Zm4.14-2.63H3.13V58.72h1.51c5.06 0 6.64.81 6.64 5.89v15.83c0 5.11-1.58 5.93-6.64 5.93Zm-1-.5h1c4.83 0 6.14-.68 6.14-5.43V64.61c0-4.71-1.31-5.39-6.14-5.39h-1v26.64Zm27.68-21.25v15.83c0 6.72-2.17 9.23-6.93 9.23s-6.89-2.51-6.89-9.23V64.62c0-6.72 2.17-9.19 6.89-9.19s6.93 2.46 6.93 9.19Zm-3.13-.21c0-4.39-.84-5.85-3.8-5.85s-3.76 1.46-3.76 5.85v16.25c0 4.43.84 5.89 3.76 5.89s3.8-1.46 3.8-5.89V64.41Z" fill="#22821a"/><path d="M24.39 89.92c-5.01 0-7.14-2.84-7.14-9.48V64.61c0-6.62 2.14-9.44 7.14-9.44s7.18 2.82 7.18 9.44v15.83c0 6.65-2.15 9.48-7.18 9.48Zm0-34.24c-4.71 0-6.64 2.59-6.64 8.94v15.83c0 6.38 1.92 8.98 6.64 8.98s6.68-2.6 6.68-8.98V64.62c0-6.35-1.94-8.94-6.68-8.94Zm0 31.11c-3.39 0-4.01-2.07-4.01-6.14V64.4c0-4.04.62-6.1 4.01-6.1s4.05 2.05 4.05 6.1v16.25c0 4.07-.63 6.14-4.05 6.14Zm0-27.98c-2.72 0-3.51 1.25-3.51 5.59v16.25c0 4.37.79 5.64 3.51 5.64s3.55-1.26 3.55-5.64V64.4c0-4.34-.8-5.59-3.55-5.59Zm26.31-2.96v33.41h-3.13l-9.77-25.1v25.1h-3.13V55.85h3.13l9.77 25.1v-25.1h3.13Z" fill="#22821a"/><path d="M50.96 89.51H47.4L38.05 65.5v24.01h-3.64V55.6h3.56l9.35 24.01V55.6h3.64v33.91ZM47.74 89h2.71V56.09h-2.63v26.19l-10.2-26.19h-2.71V89h2.63V62.81L47.74 89Zm20.21-24.38v15.83c0 7.56-3.01 8.81-9.52 8.81h-4.39V55.85h4.39c6.51 0 9.52 1.21 9.52 8.77Zm-3.13 15.82V64.61c0-4.93-1.46-5.64-6.39-5.64h-1.25v27.15h1.25c4.93 0 6.39-.75 6.39-5.68Z" fill="#22821a"/><path d="M58.43 89.51h-4.64V55.6h4.64c6.62 0 9.77 1.35 9.77 9.02v15.83c0 7.71-3.15 9.06-9.77 9.06ZM54.3 89h4.13c6.41 0 9.27-1.24 9.27-8.56V64.61c0-7.33-2.73-8.52-9.27-8.52H54.3V89Zm4.13-2.63h-1.5V58.72h1.5c5.07 0 6.64.81 6.64 5.89v15.83c0 5.11-1.58 5.93-6.64 5.93Zm-1-.5h1c4.83 0 6.14-.68 6.14-5.43V64.61c0-4.71-1.31-5.39-6.14-5.39h-1v26.64Zm17-26.89v11.99h6.89v3.13h-6.89v12.03h6.89v3.13H71.3V55.85h10.02v3.13h-6.89Z" fill="#22821a"/><path d="M81.57 89.51H71.04V55.6h10.53v3.64h-6.89v11.48h6.89v3.64h-6.89v11.52h6.89v3.64ZM71.55 89h9.52v-2.63h-6.89V73.84h6.89v-2.63h-6.89V58.72h6.89v-2.63h-9.52V89Zm31.48-2.88v3.13H93.01V55.84h3.13v30.28h6.89Z" fill="#22821a"/><path d="M103.29 89.51H92.76V55.6h3.64v30.28h6.89v3.64ZM93.26 89h9.52v-2.63h-6.89V56.09h-2.63V89Zm23.18-7.01h-6.51l-1.04 7.27h-3.13l5.18-33.41h4.47l5.22 33.41h-3.13l-1.04-7.27Zm-.46-3.13-2.8-19.38-2.8 19.38h5.6Z" fill="#22821a"/><path d="M120.91 89.51h-3.65l-1.04-7.27h-6.08l-1.04 7.27h-3.65l.05-.29 5.21-33.62h4.9l5.3 33.91ZM117.7 89h2.62l-5.14-32.91h-4.04L106.04 89h2.62l1.04-7.27h6.95l1.04 7.27Zm-1.43-9.89h-6.18l.04-.29 3.05-21.11 3.09 21.39Zm-5.59-.51h5.01l-2.51-17.36-2.51 17.36Zm37.67-22.75v33.41h-3.13l-9.77-25.1v25.1h-3.13V55.85h3.13l9.77 25.1v-25.1h3.13Z" fill="#22821a"/><path d="M148.6 89.51h-3.56l-9.35-24.01v24.01h-3.64V55.6h3.56l9.35 24.01V55.6h3.64v33.91Zm-3.21-.51h2.71V56.09h-2.63v26.19l-10.2-26.19h-2.71V89h2.63V62.81L145.39 89Zm16.24-7.01h-6.51l-1.04 7.27h-3.13l5.18-33.41h4.47l5.22 33.41h-3.13l-1.04-7.27Zm-.46-3.13-2.8-19.38-2.8 19.38h5.6Z" fill="#22821a"/><path d="M166.1 89.51h-3.65l-1.04-7.27h-6.08l-1.04 7.27h-3.65l.05-.29 5.21-33.62h4.9l5.3 33.91Zm-3.21-.51h2.62l-5.14-32.91h-4.04L151.23 89h2.62l1.04-7.27h6.95l1.04 7.27Zm-1.43-9.89h-6.18l.04-.29 3.05-21.11 3.09 21.39Zm-5.59-.51h5.01l-2.51-17.36-2.51 17.36Zm22.8-19.62h-4.93v30.28h-3.13V58.98h-4.93v-3.13h12.99v3.13Z" fill="#22821a"/><path d="M174 89.51h-3.64V59.23h-4.93v-3.64h13.49v3.64h-4.93v30.28Zm-3.14-.51h2.63V58.72h4.93v-2.63h-12.48v2.63h4.93V89Zm24.35-8.56c0 6.72-2.17 9.23-6.93 9.23s-6.89-2.51-6.89-9.23v-24.6h3.13v24.81c0 4.43.84 5.89 3.76 5.89s3.8-1.46 3.8-5.89V55.84h3.13v24.6Z" fill="#22821a"/><path d="M188.28 89.92c-5.01 0-7.14-2.84-7.14-9.48V55.59h3.64v25.06c0 4.37.79 5.64 3.51 5.64s3.55-1.26 3.55-5.64V55.59h3.64v24.85c0 6.65-2.15 9.48-7.18 9.48Zm-6.64-33.82v24.34c0 6.38 1.92 8.98 6.64 8.98s6.68-2.6 6.68-8.98V56.1h-2.63v24.55c0 4.07-.63 6.14-4.05 6.14s-4.01-2.07-4.01-6.14V56.1h-2.63Zm31.24 33.15h-3.13c-.42-.5-.46-1.71-.46-2.97v-5.8c0-5.26-3.34-5.35-6.06-5.35h-1.54v14.11h-3.13V55.83h4.68c7.77 0 9.23 3.01 9.23 9.1v.75c0 4.01-.88 6.81-3.93 8.19 2.51.79 3.88 2.67 3.88 6.89v5.51c0 1.25.04 2.46.46 2.97Zm-9.65-17.24c5.26 0 6.1-2.13 6.1-6.31v-.75c0-4.47-.84-5.97-6.1-5.97h-1.54v13.03h1.54Z" fill="#22821a"/><path d="M213.42 89.51h-3.79l-.08-.09c-.48-.57-.52-1.81-.52-3.13v-5.8c0-5.09-3.22-5.09-5.8-5.09h-1.29v14.12h-3.64V55.61h4.93c8.02 0 9.48 3.15 9.48 9.36v.75c0 4.31-1.07 6.79-3.54 8.15 2.41 1 3.5 3.17 3.5 6.93v5.51c0 .81 0 2.32.4 2.8l.34.41Zm-3.55-.51h2.58c-.26-.66-.28-1.69-.28-2.71v-5.51c0-3.84-1.11-5.83-3.71-6.65l-.63-.2.6-.27c2.65-1.2 3.78-3.58 3.78-7.96v-.75c0-6-1.34-8.85-8.98-8.85h-4.42v32.91h2.63V74.89h1.8c2.51 0 6.31 0 6.31 5.6v5.8c0 1.05.03 2.21.34 2.71Zm-6.64-16.74h-1.8V58.73h1.8c5.39 0 6.35 1.63 6.35 6.22v.75c0 4.35-.98 6.56-6.35 6.56Zm-1.29-.5h1.29c5 0 5.85-1.87 5.85-6.05v-.75c0-4.36-.81-5.72-5.85-5.72h-1.29v12.53Zm24.14 10.23h-6.51l-1.04 7.27h-3.13l5.18-33.41h4.47l5.22 33.41h-3.13l-1.04-7.27Zm-.46-3.13-2.8-19.38-2.8 19.38h5.6Z" fill="#22821a"/><path d="M230.55 89.51h-3.65l-1.04-7.27h-6.08l-1.04 7.27h-3.65l.05-.29 5.21-33.62h4.9l5.3 33.91Zm-3.21-.51h2.62l-5.14-32.91h-4.04L215.68 89h2.62l1.04-7.27h6.95l1.04 7.27Zm-1.43-9.89h-6.18l.04-.29 3.05-21.11 3.09 21.39Zm-5.6-.51h5.01l-2.51-17.36-2.51 17.36Zm22.56 7.52v3.13h-10.02V55.84h3.13v30.28h6.89Z" fill="#22821a"/><path d="M243.12 89.51h-10.53V55.6h3.64v30.28h6.89v3.64ZM233.09 89h9.52v-2.63h-6.89V56.09h-2.63V89Zm15.92-30.02v11.99h6.89v3.13h-6.89v12.03h6.89v3.13h-10.02V55.85h10.02v3.13h-6.89Z" fill="#22821a"/><path d="M256.15 89.51h-10.53V55.6h10.53v3.64h-6.89v11.48h6.89v3.64h-6.89v11.52h6.89v3.64ZM246.13 89h9.52v-2.63h-6.89V73.84h6.89v-2.63h-6.89V58.72h6.89v-2.63h-9.52V89Zm25.64-30.02-9.4 27.15h9.4v3.13h-12.53v-3.13l9.35-27.15h-9.35v-3.13h12.53v3.13Z" fill="#22821a"/><path d="M272.02 89.51h-13.03v-3.47l9.25-26.81h-9.25v-3.64h13.03v3.47l-9.29 26.81h9.29v3.64ZM259.49 89h12.02v-2.63h-9.5l9.5-27.44v-2.84h-12.02v2.63h9.46l-9.46 27.44V89Zm25.68-7.01h-6.51l-1.04 7.27h-3.13l5.18-33.41h4.47l5.22 33.41h-3.13l-1.04-7.27Zm-.46-3.13-2.8-19.38-2.8 19.38h5.6Z" fill="#22821a"/><path d="M289.64 89.51h-3.65l-1.04-7.27h-6.08l-1.04 7.27h-3.65l.05-.29 5.21-33.62h4.9l5.3 33.91Zm-3.2-.51h2.62l-5.14-32.91h-4.04L274.78 89h2.62l1.04-7.27h6.95l1.04 7.27Zm-1.43-9.89h-6.18l.04-.29 3.05-21.11 3.09 21.39Zm-5.6-.51h5.01l-2.51-17.36-2.51 17.36Zm35.46 2.64c0 5.3-1.92 8.44-6.51 8.44-5.39 0-7.31-3.01-7.31-11.73h3.13c0 7.14 1.04 8.6 4.18 8.6 2.34 0 3.38-1.04 3.38-5.3s-1.54-5.85-4.8-8.31c-2.97-2.25-5.6-4.72-5.6-9.77 0-4.59 1.96-7.73 6.6-7.73s6.81 3.13 6.81 10.02h-3.13c0-5.85-1.46-6.89-3.68-6.89s-3.47 1.04-3.47 4.59 1.63 5.1 4.18 7.06c3.59 2.67 6.22 5.05 6.22 11.03Z" fill="#22821a"/><path d="M308.35 89.92c-5.58 0-7.56-3.14-7.56-11.99v-.25h3.64v.25c0 7.09 1.03 8.35 3.92 8.35 2.08 0 3.13-.78 3.13-5.05s-1.43-5.64-4.7-8.11c-2.88-2.19-5.7-4.77-5.7-9.97s2.43-7.98 6.85-7.98c4.82 0 7.06 3.26 7.06 10.27v.25h-3.64v-.25c0-6.13-1.62-6.64-3.42-6.64-1.93 0-3.21.74-3.21 4.34 0 3.14 1.37 4.77 4.08 6.86 3.7 2.75 6.32 5.17 6.32 11.23s-2.28 8.69-6.77 8.69Zm-7.05-11.73c.04 8.39 1.83 11.23 7.05 11.23 4.21 0 6.26-2.68 6.26-8.18 0-5.82-2.54-8.16-6.12-10.82-2.34-1.8-4.28-3.59-4.28-7.26 0-3.4 1.11-4.84 3.72-4.84 2.39 0 3.88 1.16 3.93 6.89h2.63c-.05-6.58-2.08-9.52-6.55-9.52-5.25 0-6.35 4.06-6.35 7.47 0 4.98 2.6 7.37 5.5 9.57 3.41 2.58 4.9 4.16 4.9 8.51 0 4.1-.95 5.56-3.63 5.56-3.43 0-4.4-1.86-4.43-8.6h-2.63Zm26.43 3.8h-6.51l-1.04 7.27h-3.13l5.18-33.41h4.47l5.22 33.41h-3.13l-1.04-7.27Zm-.46-3.13-2.8-19.38-2.8 19.38h5.6Z" fill="#22821a"/><path d="M332.2 89.51h-3.65l-1.04-7.27h-6.08l-1.04 7.27h-3.65l.05-.29L322 55.6h4.9l5.3 33.91ZM329 89h2.62l-5.14-32.91h-4.04L317.34 89h2.62l1.04-7.27h6.95l1.04 7.27Zm-1.44-9.89h-6.18l.04-.29 3.05-21.11 3.09 21.39Zm-5.59-.51h5.01l-2.51-17.36-2.51 17.36Zm28.57-22.75v33.41h-3.13l-9.77-25.1v25.1h-3.13V55.85h3.13l9.77 25.1v-25.1h3.13Z" fill="#22821a"/><path d="M350.79 89.51h-3.56l-9.35-24.01v24.01h-3.64V55.6h3.56l9.35 24.01V55.6h3.64v33.91Zm-3.21-.51h2.71V56.09h-2.63v26.19l-10.2-26.19h-2.71V89h2.63V62.81L347.58 89Zm16.24-7.01h-6.51l-1.04 7.27h-3.13l5.18-33.41h4.47l5.22 33.41h-3.13l-1.04-7.27Zm-.46-3.13-2.8-19.38-2.8 19.38h5.6Z" fill="#22821a"/><path d="M368.29 89.51h-3.65l-1.04-7.27h-6.08l-1.04 7.27h-3.65l.05-.29 5.21-33.62h4.9l5.3 33.91Zm-3.21-.51h2.62l-5.14-32.91h-4.04L353.42 89h2.62l1.04-7.27h6.95l1.04 7.27Zm-1.43-9.89h-6.18l.04-.29 3.05-21.11 3.09 21.39Zm-5.6-.51h5.01l-2.51-17.36-2.51 17.36Z" fill="#22821a"/></g></svg>