<?xml version="1.0" encoding="UTF-8"?>
<svg id="Capa_2" data-name="Capa 2" xmlns="http://www.w3.org/2000/svg" viewBox="0 0 364.65 51.21">
  <defs>
    <style>
      .cls-1 {
        fill: #22821a;
      }
    </style>
  </defs>
  <g id="Layer_1" data-name="Layer 1">
    <path class="cls-1" d="M231.75,8.38v42.3h-3.97v-28.07l-6.29,28.07h-3.28l-6.24-28.07v28.07h-3.97V8.38h3.97l7.88,34.31,7.93-34.31h3.97Z"/>
    <path class="cls-1" d="M247.77,41.48h-8.25l-1.32,9.2h-3.97l6.56-42.3h5.66l6.61,42.3h-3.97l-1.32-9.2ZM247.19,37.52l-3.54-24.53-3.54,24.53h7.08Z"/>
    <path class="cls-1" d="M271.13,12.35l-11.9,34.37h11.9v3.97h-15.86v-3.97l11.84-34.37h-11.84v-3.97h15.86v3.97Z"/>
    <path class="cls-1" d="M291.65,19.49v20.04c0,8.51-2.75,11.68-8.78,11.68s-8.72-3.17-8.72-11.68v-20.04c0-8.51,2.75-11.63,8.72-11.63s8.78,3.12,8.78,11.63ZM287.68,19.22c0-5.55-1.06-7.4-4.81-7.4s-4.76,1.85-4.76,7.4v20.57c0,5.6,1.06,7.46,4.76,7.46s4.81-1.85,4.81-7.46v-20.57Z"/>
    <path class="cls-1" d="M315.38,8.38v42.3h-3.97l-12.37-31.78v31.78h-3.97V8.38h3.97l12.37,31.78V8.38h3.97Z"/>
    <g>
      <path class="cls-1" d="M17.5,40.53c0,6.71-2.43,10.68-8.25,10.68-6.82,0-9.25-3.81-9.25-14.86h3.97c0,9.04,1.32,10.89,5.29,10.89,2.96,0,4.28-1.32,4.28-6.71s-1.96-7.4-6.08-10.52C3.7,27.15.37,24.03.37,17.64.37,11.82,2.85,7.86,8.72,7.86s8.62,3.97,8.62,12.69h-3.97c0-7.4-1.85-8.72-4.65-8.72s-4.39,1.32-4.39,5.82,2.06,6.45,5.29,8.94c4.55,3.38,7.88,6.4,7.88,13.96Z"/>
      <path class="cls-1" d="M34.99,41.48h-8.25l-1.32,9.2h-3.97l6.56-42.3h5.66l6.61,42.3h-3.97l-1.32-9.2ZM34.41,37.52l-3.54-24.53-3.54,24.53h7.08Z"/>
      <path class="cls-1" d="M65.06,8.38v42.3h-3.97l-12.37-31.78v31.78h-3.97V8.38h3.97l12.37,31.78V8.38h3.97Z"/>
      <path class="cls-1" d="M84.15,12.35h-6.24v38.33h-3.97V12.35h-6.24v-3.97h16.44v3.97Z"/>
      <path class="cls-1" d="M104.29,39.53c0,8.51-2.75,11.68-8.78,11.68s-8.72-3.17-8.72-11.68V8.38h3.97v31.41c0,5.6,1.06,7.46,4.76,7.46s4.81-1.85,4.81-7.46V8.38h3.97v31.14Z"/>
      <path class="cls-1" d="M119.78,41.48h-8.25l-1.32,9.2h-3.97l6.56-42.3h5.66l6.61,42.3h-3.97l-1.32-9.2ZM119.2,37.52l-3.54-24.53-3.54,24.53h7.08Z"/>
      <path class="cls-1" d="M145.68,50.68h-3.97c-.53-.63-.58-2.17-.58-3.75v-7.35c0-6.66-4.23-6.77-7.67-6.77h-1.96v17.87h-3.97V8.38h5.92c9.83,0,11.68,3.81,11.68,11.53v.95c0,5.08-1.11,8.62-4.97,10.36,3.17,1,4.92,3.38,4.92,8.72v6.98c0,1.59.05,3.12.58,3.75ZM133.47,28.85c6.66,0,7.72-2.7,7.72-7.98v-.95c0-5.66-1.06-7.56-7.72-7.56h-1.96v16.5h1.96Z"/>
      <path class="cls-1" d="M152.55,8.38v42.3h-3.97V8.38h3.97Z"/>
      <path class="cls-1" d="M173.49,19.49v20.04c0,8.51-2.75,11.68-8.78,11.68s-8.72-3.17-8.72-11.68v-20.04c0-8.51,2.75-11.63,8.72-11.63s8.78,3.12,8.78,11.63ZM169.52,19.22c0-5.55-1.06-7.4-4.81-7.4s-4.76,1.85-4.76,7.4v20.57c0,5.6,1.06,7.46,4.76,7.46s4.81-1.85,4.81-7.46v-20.57Z"/>
      <path class="cls-1" d="M200.24,41.48h-8.25l-1.32,9.2h-3.97l6.56-42.3h5.66l6.61,42.3h-3.97l-1.32-9.2ZM199.66,37.52l-3.54-24.53-3.54,24.53h7.08Z"/>
      <path class="cls-1" d="M322.78,8.38v42.3h-3.97V8.38h3.97Z"/>
      <path class="cls-1" d="M339.75,19.22c0-5.55-1.06-7.4-4.81-7.4s-4.76,1.85-4.76,7.4v20.57c0,5.6,1.06,7.46,4.76,7.46s4.81-1.85,4.81-7.46v-6.29h3.97v6.03c0,8.51-2.75,11.68-8.78,11.68s-8.72-3.17-8.72-11.68v-20.04c0-8.51,2.75-11.63,8.72-11.63s8.78,3.12,8.78,11.63v6.08h-3.97v-6.34Z"/>
      <path class="cls-1" d="M364.65,19.49v20.04c0,8.51-2.75,11.68-8.78,11.68s-8.72-3.17-8.72-11.68v-20.04c0-8.51,2.75-11.63,8.72-11.63s8.78,3.12,8.78,11.63ZM360.69,19.22c0-5.55-1.06-7.4-4.81-7.4s-4.76,1.85-4.76,7.4v20.57c0,5.6,1.06,7.46,4.76,7.46s4.81-1.85,4.81-7.46v-20.57Z"/>
      <polygon class="cls-1" points="284.83 0 284.96 0 289.58 0 283.55 5.31 280.45 5.35 284.83 0"/>
    </g>
  </g>
</svg>