<?xml version="1.0" encoding="UTF-8"?>
<svg id="Capa_2" data-name="Capa 2" xmlns="http://www.w3.org/2000/svg" viewBox="0 0 474.24 85.43">
  <defs>
    <style>
      .cls-1 {
        fill: #d4af38;
      }
    </style>
  </defs>
  <g id="Layer_1" data-name="Layer 1">
    <path class="cls-1" d="M55.28,6.42C57.7,3.24,61.11.73,65.09,0c2.63-.21,4.78,3.13,3.16,5.33-3.7,6.22-9.8,10.37-15.34,14.76-1.1,3.31-1.66,6.78-2.65,10.13,17.35-5.92,35.73-7.66,53.9-9.1,23.7-.87,47.55-1.91,71.16.9,2.57-3.02,3.59-8.43,7.83-9.35,4.03.6.18,3.97-.89,5.69-6.97,11.05-12.73,22.85-17.87,34.85,4.73-8.07,9.67-16.01,14.97-23.72,4.93-6.65,9.54-13.7,15.88-19.12,1.86-1.93,5.59-.98,5.88,1.81.37,4.66-.87,9.56.9,14.04.57,2.32,4,1.37,4.42,3.83-3.15-.61-7.11-1.47-8.46-4.81-1.43-4.21-.79-8.75-.48-13.08-20.83,20.3-33.93,46.85-45.66,73.08-.77.04-2.31.13-3.08.18-.69-3.02.99-5.78,1.86-8.56,6.8-18.48,14.57-36.66,24.16-53.87-29.17-1.67-58.48-1.28-87.53,1.88-12.56,1.55-25.36,3.41-36.99,8.67-1.24.34-1.47,1.77-1.99,2.75-6.68,16.22-19.36,30.69-36.2,36.62-4,1.57-9.36,1.11-11.62-2.99-1.6-4.76,1.32-9.49,4.5-12.83,11.48-11.37,26.17-18.63,40.83-24.97,3.38-8.48,3.92-18.22,9.5-25.71ZM53.47,17.08c5.42-4.01,11.12-8.55,13.72-14.97-7.34,1.19-11.44,8.57-13.72,14.97ZM10.88,56.02c-4.12,4.02-9.43,9.03-8.16,15.37,4.36.91,8.59-1.1,12.34-3.1,12.27-7.5,22.31-18.8,28.18-31.93-11.76,4.65-22.76,11.42-32.36,19.66Z"/>
    <path class="cls-1" d="M338.03,13.52c2.33-1.75,4.18-4.35,7.03-5.28,1.36.4,2.46,1.35,3.66,2.11-3.43,6.91-8.5,13.21-9.87,20.98-.56,3.28,0,7.37,3.16,9.18,3.6,2.18,8.07,1.51,12.09,1.45,19.25-1.68,38.23-5.54,57.13-9.41,19.89-4.41,39.75-9.27,60.04-11.51,1-.06,2.21-.33,2.97.55-37.05,5.41-72.98,16.65-110.08,21.76-7.75.77-16.14,2.05-23.31-1.88-3.14-1.48-5.43-4.58-5.69-8.07-.76-5.78,2.1-11.05,3.95-16.32-8.05,4.89-15,11.39-23.02,16.35-1.8.93-3.74,3.06-5.9,1.91-1.25-.36-1.92-1.74-1.8-2.96,2.65-4.33,6.54-7.7,9.87-11.49-11.76,1.68-23.49,3.62-35.28,5.11-15.17,1.6-30.36,2.91-45.58,3.97-.75-.58-1.51-1.15-2.26-1.72,28.44-1.78,56.76-5.27,84.96-9.26,3.7-1.96,6.54-5.65,10.83-6.5,2.42-.67,4.79.45,7.1,1.03ZM318.89,27.18c5.5-3.38,10.72-7.39,15.21-12.02-6.08,2.49-10.67,7.45-15.21,12.02Z"/>
    <path class="cls-1" d="M205.8,28.69c8.97.69,17.98.58,26.95-.15.78.55,1.57,1.12,2.36,1.7-9.54-.02-19.14,1.28-28.62-.29l-.69-1.26Z"/>
  </g>
</svg>