<?xml version="1.0" encoding="UTF-8"?>
<svg id="Capa_2" data-name="Capa 2" xmlns="http://www.w3.org/2000/svg" viewBox="0 0 170.3 170.35">
  <defs>
    <style>
      .cls-1 {
        fill: #030405;
      }
    </style>
  </defs>
  <g id="Layer_1" data-name="Layer 1">
    <g>
      <g>
        <path d="M155.91,140.75H14.39c-7.93,0-14.39-6.46-14.39-14.39V58.18c0-7.93,6.46-14.39,14.39-14.39h141.52c7.93,0,14.39,6.46,14.39,14.39v68.18c0,7.93-6.46,14.39-14.39,14.39ZM14.39,50.93c-4,0-7.25,3.25-7.25,7.25v68.18c0,4,3.25,7.25,7.25,7.25h141.52c4,0,7.25-3.25,7.25-7.25V58.18c0-4-3.25-7.25-7.25-7.25H14.39Z"/>
        <path d="M160.68,170.35c-.29,0-.59-.04-.89-.11-22.88-5.85-46.69-9.1-70.77-9.65-26.61-.6-53.05,2.08-78.59,7.98-1.92.45-3.84-.75-4.28-2.67-.44-1.92.75-3.84,2.68-4.28,26.12-6.04,53.16-8.79,80.36-8.16,24.62.56,48.97,3.88,72.38,9.87,1.91.49,3.06,2.43,2.57,4.34-.41,1.61-1.86,2.69-3.46,2.69Z"/>
      </g>
      <path class="cls-1" d="M83.17,42.31c-.74,0-1.48-.24-2.09-.71L45.81,14.57c-1.51-1.16-1.79-3.32-.64-4.83,1.16-1.51,3.32-1.8,4.83-.64l33.16,25.41L126.4.73c1.5-1.17,3.66-.9,4.83.59,1.17,1.5.9,3.66-.59,4.83l-45.35,35.42c-.62.49-1.37.73-2.12.73Z"/>
    </g>
  </g>
</svg>