<?xml version="1.0" encoding="UTF-8"?>
<svg id="Capa_2" data-name="Capa 2" xmlns="http://www.w3.org/2000/svg" viewBox="0 0 138.39 116.71">
  <g id="Layer_1" data-name="Layer 1">
    <g>
      <g>
        <path d="M136.89,30.77c-.12,2.66-2.43,3.65-4.25,2.35-1.3-.93-2.45-2.08-3.64-3.17-16.9-15.42-36.75-23.04-59.67-23.13-23.26-.09-43.26,7.85-60.42,23.35-.99.9-1.94,1.85-2.96,2.72-1.15.99-2.42,1.18-3.65.19-1.08-.87-1.1-2.55.2-3.91,1.94-2.04,3.98-4,6.14-5.79C28.03,7.32,50.44.13,75.46,1.71c22.8,1.44,42.55,10.28,59.07,26.14,1.01.97,1.78,2.2,2.35,2.92Z"/>
        <path d="M3.97,35.24c-.9,0-1.8-.32-2.62-.98-.8-.64-1.28-1.56-1.35-2.6-.08-1.24.41-2.49,1.4-3.52,2.16-2.28,4.22-4.21,6.27-5.91C27.25,6.02,50.1-1.39,75.55.21c22.98,1.45,43.17,10.39,60.02,26.56.82.79,1.47,1.68,1.99,2.39.18.25.35.48.5.67.23.28.34.64.33,1-.08,1.8-.97,3.28-2.37,3.96-1.34.65-2.93.48-4.25-.46-1.09-.78-2.05-1.68-2.99-2.55-.26-.24-.52-.49-.79-.73-16.45-15-36.19-22.65-58.67-22.74-.13,0-.26,0-.4,0-22.6,0-41.91,7.51-59.02,22.96-.4.37-.8.74-1.2,1.11-.59.55-1.17,1.1-1.78,1.63-.93.8-1.95,1.21-2.95,1.21ZM68.82,3c-22.06,0-41.95,7.23-59.23,21.54-1.96,1.63-3.93,3.48-6.01,5.67-.39.41-.6.87-.58,1.25.01.19.09.34.23.46.41.33.88.58,1.73-.16.58-.5,1.13-1.02,1.68-1.54.41-.39.83-.78,1.25-1.16C25.44,13.22,46.09,5.22,69.33,5.33c23.25.09,43.66,8,60.68,23.52.27.25.54.5.81.75.9.84,1.76,1.64,2.69,2.3.42.3.85.37,1.2.2.3-.15.52-.47.62-.91-.06-.08-.13-.17-.19-.26-.47-.65-1.01-1.39-1.64-1.99C117.18,13.27,97.62,4.61,75.37,3.21c-2.2-.14-4.38-.21-6.54-.21Z"/>
      </g>
      <g>
        <path d="M117.67,49.84c.11,2.36-1.77,3.65-3.52,2.67-1.04-.58-1.92-1.46-2.81-2.27-23.02-20.91-57.88-21.83-81.87-2.16-1.45,1.19-2.83,2.47-4.27,3.67-1.73,1.43-3.11,1.5-4.2.19-1.21-1.46-.63-2.72.52-3.89,4.38-4.42,9.37-8.03,14.81-10.99,24.86-13.51,55.25-10.43,76.84,7.72,1.23,1.03,2.4,2.15,3.49,3.33.52.56.79,1.34,1.01,1.74Z"/>
        <path d="M22.76,54.37c-1.46,0-2.44-.91-2.92-1.48-.89-1.07-2-3.27.61-5.9,4.3-4.34,9.4-8.12,15.16-11.25,25.51-13.86,56.33-10.76,78.52,7.89,1.26,1.06,2.48,2.22,3.63,3.45.54.58.86,1.27,1.07,1.73.05.12.1.22.15.3.11.2.18.43.19.67.08,1.73-.64,3.23-1.92,4.02-1.15.71-2.58.72-3.83.03-1.03-.57-1.87-1.35-2.68-2.09l-.41-.37c-22.31-20.26-56.67-21.17-79.91-2.11-.75.62-1.48,1.26-2.21,1.9-.68.59-1.36,1.19-2.05,1.76-1.32,1.09-2.46,1.47-3.39,1.47ZM69.19,30.14c-10.95,0-21.99,2.71-32.14,8.23-5.5,2.99-10.36,6.6-14.46,10.73-1.08,1.09-.8,1.44-.43,1.88.29.36.66.8,2.09-.38.67-.56,1.33-1.14,1.99-1.71.76-.66,1.51-1.32,2.29-1.96,11.88-9.74,26.91-14.88,42.29-14.47,15.39.41,30.14,6.33,41.54,16.69l.43.39c.71.66,1.38,1.28,2.1,1.68.21.12.52.22.8.05.23-.14.46-.49.5-1.05-.02-.04-.04-.08-.05-.12-.15-.32-.34-.72-.55-.95-1.06-1.14-2.19-2.22-3.36-3.2-12.4-10.43-27.63-15.77-43.02-15.77Z"/>
      </g>
      <g>
        <path d="M68.89,115.18c-8.2.57-16.19-7.37-15.87-16.18.33-9.15,7.34-16.18,16.56-16.03,8.74.14,15.87,7.63,15.73,16.51-.14,8.94-7.3,15.79-16.42,15.7ZM69.32,88.34c-6.09-.09-11.12,4.74-11.17,10.71-.04,5.96,4.92,10.99,10.94,11.08,5.78.09,10.71-4.74,10.88-10.65.17-6.2-4.47-11.05-10.65-11.14Z"/>
        <path d="M68.07,116.71c-3.93,0-7.93-1.71-11.09-4.77-3.64-3.52-5.63-8.26-5.46-12.99.37-10.12,8.12-17.63,18.08-17.48,9.65.15,17.36,8.24,17.21,18.03-.15,9.67-7.94,17.18-17.76,17.18-.04,0-.08,0-.12,0-.29.02-.58.03-.87.03ZM69.3,84.47c-8.14,0-14.48,6.23-14.78,14.59-.14,3.88,1.52,7.79,4.54,10.73,2.8,2.71,6.35,4.13,9.73,3.9.04,0,.08,0,.12,0,8.23.06,14.78-6.17,14.91-14.23.13-8-6.4-14.86-14.26-14.98-.09,0-.17,0-.26,0ZM69.25,111.64c-.06,0-.12,0-.18,0-6.89-.1-12.46-5.75-12.41-12.59.02-3.25,1.33-6.31,3.69-8.62,2.42-2.36,5.61-3.64,9-3.59,3.39.05,6.5,1.38,8.76,3.73,2.27,2.36,3.46,5.54,3.37,8.95-.19,6.72-5.65,12.11-12.22,12.11ZM69.15,89.84c-2.53,0-4.9.97-6.71,2.73-1.78,1.74-2.77,4.05-2.79,6.49-.04,5.11,4.29,9.49,9.46,9.57.04,0,.09,0,.13,0,4.88,0,9.09-4.18,9.23-9.19.07-2.6-.83-5.01-2.54-6.79-1.7-1.77-4.06-2.77-6.64-2.81h0s-.1,0-.15,0Z"/>
      </g>
      <g>
        <path d="M69.08,61.06c-8.85.08-16.9,2.38-23.54,8.59-.68.63-1.44,1.2-2.25,1.66-1.18.68-2.55.59-3.22-.55-.44-.76-.42-2.1-.05-2.94.39-.92,1.37-1.62,2.17-2.32,8.77-7.71,19.14-10.37,30.57-9.55,8.82.63,16.71,3.6,23.31,9.62.69.63,1.37,1.28,1.99,1.97.93,1.03,1.04,2.18.11,3.26-1.05,1.23-2.34,1.17-3.6.35-.67-.44-1.28-.97-1.87-1.52-6.67-6.16-14.72-8.49-23.62-8.56Z"/>
        <path d="M41.8,73.24c-1.24,0-2.37-.6-3.03-1.72-.75-1.28-.64-3.13-.14-4.29.46-1.08,1.36-1.84,2.15-2.51.14-.12.28-.23.41-.35,8.64-7.59,18.99-10.83,31.67-9.92,9.54.69,17.68,4.05,24.22,10.01.64.58,1.39,1.29,2.1,2.08,1.46,1.63,1.51,3.64.13,5.24-1.47,1.71-3.54,1.94-5.56.62-.77-.5-1.45-1.1-2.07-1.67-5.85-5.41-13.25-8.08-22.61-8.17-9.35.09-16.72,2.77-22.52,8.19-.78.73-1.63,1.36-2.53,1.87-.74.42-1.5.62-2.23.62ZM68.81,57.3c-10.11,0-18.52,3.07-25.64,9.32-.15.13-.3.26-.45.39-.56.48-1.14.97-1.33,1.4-.23.53-.18,1.34-.03,1.6.28.48,1.03.09,1.18,0,.69-.39,1.37-.9,1.97-1.46,6.38-5.96,14.41-8.9,24.55-9,0,0,.02,0,.03,0,10.14.09,18.2,3.02,24.63,8.96.52.48,1.08.98,1.67,1.36.94.61,1.3.33,1.64-.07.3-.35.47-.65-.09-1.28-.62-.69-1.3-1.33-1.89-1.86-6.11-5.57-13.44-8.59-22.41-9.23-1.3-.09-2.58-.14-3.83-.14Z"/>
      </g>
    </g>
  </g>
</svg>